<svg id="Layer_1" data-name="Layer 1" xmlns="http://www.w3.org/2000/svg" viewBox="0 0 122.48 74.5"><defs><style>.cls-1{fill:#6e1a1a;}</style></defs><title>award1</title><g id="OBJECTS"><path class="cls-1" d="M111,45.9l.1.1h.1c1-.1,2.1-.3,3.1-.4a10.89,10.89,0,0,0,3.1-.8h.1v-.2l-.1-.1h-.1a10.89,10.89,0,0,1-3.1.8,2,2,0,0,0-.8.1,17,17,0,0,0-2.2.4c-.1-.1-.2,0-.2.1Z" transform="translate(-0.03 0)"/><path class="cls-1" d="M23.8,40.1h.9c.6,0,1.2-.1,1.8-.1a10.87,10.87,0,0,0,1.8-.1c1.2-.1,2.4-.3,3.6-.5a14,14,0,0,0,3.5-1c.1,0,.1-.1.1-.2s0-.1-.1-.1h-.2a24.18,24.18,0,0,1-3.6,1c-1.2.2-2.4.4-3.6.5-.6,0-1.2.1-1.7.1a13.43,13.43,0,0,0-1.9.1h-.8a7.46,7.46,0,0,0-2.6.4.1.1,0,0,0-.1.1h0l.1.1h.1A8.61,8.61,0,0,1,23.8,40.1Z" transform="translate(-0.03 0)"/><path class="cls-1" d="M52.3,44.7v-.3h-.1a27.9,27.9,0,0,0-5,.2c-.5,0-.9.1-1.4.1h-.2v.1a.22.22,0,0,0,.2.2h0a21.05,21.05,0,0,0,2.5-.2,24.13,24.13,0,0,1,3.8-.1Z" transform="translate(-0.03 0)"/><path class="cls-1" d="M17,25.5v-.1h0a5.27,5.27,0,0,0-1.2-.3l-.3-.1c-.6-.1-1.1-.2-1.6-.3a17,17,0,0,1-2.2-.4l-1-.2a.22.22,0,0,0-.2.2h0v.1h.1l1.3.2,1.7.3c.6.1,1.1.2,1.6.3.2,0,.4.1.6.1a2.92,2.92,0,0,0,.9.2Z" transform="translate(-0.03 0)"/><path class="cls-1" d="M42.1,45.4a3.3,3.3,0,0,1,0,1.4V47h.2v-.1a1.27,1.27,0,0,0,.1-.6,2.2,2.2,0,0,0-.1-.8v-.2c0-.1-.1-.2-.2-.1h0l-.1.1Z" transform="translate(-0.03 0)"/><path class="cls-1" d="M27,36.7l.6-.3a19.46,19.46,0,0,1,2.5-.9,15.38,15.38,0,0,1,5.2-.9h.1l.1-.1v-.2h-.1a14.09,14.09,0,0,0-5,.7c-.9.3-1.8.6-2.6.9l-.5.2c-.6.3-1.3.5-1.9.8a.1.1,0,0,0-.1.1h0v.1l.1.1h.1Z" transform="translate(-0.03 0)"/><path class="cls-1" d="M41.2,49.6a.1.1,0,0,0,.1.1h.1v-.1a11,11,0,0,0,.2-1.8v-.1a3.45,3.45,0,0,0-.3-1.3l-.1-.4c0-.1-.1-.1-.2-.1h0v.2l.1.4a3.4,3.4,0,0,1,.2,1.4c0,.2-.1.5-.1.7A3.33,3.33,0,0,0,41.2,49.6Z" transform="translate(-0.03 0)"/><path class="cls-1" d="M5.5,42.4l.3-.1a5.48,5.48,0,0,0,1.5-.8h.1v-.1c0-.1,0-.1-.1-.1H7.1a4.67,4.67,0,0,0-1,.5,3.63,3.63,0,0,1-.7.3,11.11,11.11,0,0,1-1.6.7H3.6a.1.1,0,0,0-.1.1V43l.1.1h.1A13.36,13.36,0,0,0,5.5,42.4Z" transform="translate(-0.03 0)"/><path class="cls-1" d="M12.9,34.3h.4a4.08,4.08,0,0,1,1.9.1h.1l.1-.1v-.2h-.1a3.32,3.32,0,0,0-2.4-.1.1.1,0,0,0-.1.1l.1.2Z" transform="translate(-0.03 0)"/><path class="cls-1" d="M15.8,35.2V35h-.2a7.45,7.45,0,0,1-2.5,1.3l-1.2.3c-.4.1-1,.3-1.5.4l-.1.1v.1a.1.1,0,0,0,.1.1h.1l1.1-.3a8.31,8.31,0,0,0,4.2-1.8Z" transform="translate(-0.03 0)"/><path class="cls-1" d="M13.3,37.6a5.94,5.94,0,0,0-.8.4h-.2v.2l.1.1h.1a6.6,6.6,0,0,0,2.8-1.6v-.1h0c0-.1,0-.1-.1-.1h-.1l-.1.1A6.93,6.93,0,0,1,13.3,37.6Z" transform="translate(-0.03 0)"/><path class="cls-1" d="M4.6,39.7a2.65,2.65,0,0,1,.5-.6,8.64,8.64,0,0,1,1.4-1.3c.3-.2.5-.5.8-.7a17.33,17.33,0,0,1,2.1-1.7,8,8,0,0,1,2.6-.9c.1,0,.1-.1.1-.2s0-.1-.1-.1h-.1a8.51,8.51,0,0,0-4.7,2.4,9,9,0,0,1-1,.9c-.4.4-.8.7-1.2,1.1a5.72,5.72,0,0,0-.7.8,4.56,4.56,0,0,1-1.2,1.2H3v.2l.2.2h.1A8,8,0,0,0,4.6,39.7Z" transform="translate(-0.03 0)"/><path class="cls-1" d="M10.3,36.7l.1-.1v-.2h-.3a5.75,5.75,0,0,0-2.9,1.7l-.8.8a15.37,15.37,0,0,1-1.9,1.7l-.1.1v.1l.2.1h.1a16.32,16.32,0,0,0,2-1.7l.5-.5a12.67,12.67,0,0,1,1.3-1.1A4.37,4.37,0,0,1,10.3,36.7Z" transform="translate(-0.03 0)"/><path class="cls-1" d="M112.8,46.5l.1-.1v-.2h-.1a5.32,5.32,0,0,0-3.5.5l-.1.1v.1c0,.1,0,.1.1.1h.1a5.81,5.81,0,0,1,3.4-.5Z" transform="translate(-0.03 0)"/><path class="cls-1" d="M70.8,38.5l.3-.3c.2-.3.5-.5.7-.8a9.5,9.5,0,0,0,1-1.7,19.84,19.84,0,0,0,1.3-3.9l.4-1.6a19.68,19.68,0,0,1,2.2-6.3l.3-.4v-.1h0v-.1l.2-.3-.3.2h-.2A17.4,17.4,0,0,1,73.4,25a11.5,11.5,0,0,0-4.5,3,9.91,9.91,0,0,0-1.1,1.7,14.72,14.72,0,0,0-1,2.2,7.07,7.07,0,0,0-.5,4.3c0,.1.1.1.2.1l.1-.1v-.1a4.1,4.1,0,0,1-.1-1.1,10.66,10.66,0,0,1,.6-3.1,12.78,12.78,0,0,1,2.1-3.8,9.62,9.62,0,0,1,2.2-1.8,14.29,14.29,0,0,0-1.4,2h0l-.1.1A6.77,6.77,0,0,0,68.1,31a16.12,16.12,0,0,0-.9,2.9l-.1.3h0v.1h.3l.1-.2A13.65,13.65,0,0,1,69.7,29a28.8,28.8,0,0,0-1.3,3.1A26.55,26.55,0,0,0,66.9,39v.1H67V39a35.23,35.23,0,0,1,1.5-6.6,19.28,19.28,0,0,1,3.2-6h0c0-.1,0-.1-.1-.1.4-.2.9-.4,1.3-.6-.5.6-1,1.2-1.5,1.9-.6.9-1.2,1.8-1.7,2.7h0v.2l.2.1.1-.1c.3-.4.6-.9.9-1.4a14.63,14.63,0,0,1,.9-1.3,24.33,24.33,0,0,1,2-2.5c.5-.2,1-.5,1.6-.8a23.83,23.83,0,0,0-4.7,5.3,25.28,25.28,0,0,0-1.8,3.7c-.2.6-.5,1.3-.7,1.9s-.5,1.4-.7,2v.1c0,.1,0,.1.1.1h.1v-.1c.3-.8.6-1.6.9-2.5l.4-1.3A21.15,21.15,0,0,1,70.8,30a27.45,27.45,0,0,1,5.1-5.7,19.27,19.27,0,0,0-1.8,5.6l-.2.8c-.7,2.8-1.4,5.5-3.4,7.4h-.1a5.3,5.3,0,0,0,.6-1,11.11,11.11,0,0,0,.7-1.6c.2-.5.5-1.2.7-1.8l.6-1.6h0c0-.1-.1-.1-.1-.2h-.1V32l-.9,2.1-.4,1.1a10.74,10.74,0,0,1-.7,1.5c-.2.3-.4.7-.6,1l-.2.7v.1c0,.1,0,.1.1.1h.1l.1-.1.1-.1-.1.2c-.1.1,0,.2.1.3s.2,0,.3-.1h0C70.6,38.7,70.7,38.6,70.8,38.5Z" transform="translate(-0.03 0)"/><path class="cls-1" d="M59.2,42.6h0l-.2-.4a2.18,2.18,0,0,1-.4-.5l-.5-.6-.2-.2a6.73,6.73,0,0,0-1.4-1.5h-.1l-.1.1v.2h.1a6.73,6.73,0,0,1,1.4,1.5l.2.3a4.26,4.26,0,0,0,1.1,1.2l.1.1.2-.1Z" transform="translate(-0.03 0)"/><path class="cls-1" d="M52.6,37.2l.1.1-.1.1v.2h.1a15.41,15.41,0,0,1,5,2.4,8.2,8.2,0,0,1,1.7,2,4.05,4.05,0,0,1,.5.9l.1.2.3.4c.2.3.3.5.5.8,0,.1.1.1.2.1h0c.1,0,.1-.1.1-.2V44a2.51,2.51,0,0,0-.4-.7c-.1-.1-.1-.2-.2-.4-.2-.4-.5-.8-.7-1.2a10.61,10.61,0,0,0-1.7-2,10.37,10.37,0,0,0-2.5-1.5c-.6-.3-1.2-.5-1.9-.8a.6.6,0,0,1,.4.1l.3.1c.6.1,1.2.3,1.8.4a11.26,11.26,0,0,1,3.5,2.1l.1.1L60,40h0a13.85,13.85,0,0,0-3.5-2.2,13.32,13.32,0,0,0-1.9-.5,11.7,11.7,0,0,1-2-.5h-.2V37Z" transform="translate(-0.03 0)"/><path class="cls-1" d="M40.1,34.9a2.6,2.6,0,0,1,1.8,1.3,10.91,10.91,0,0,1,.6,1.1l.1.3.3.6.1.1h.1c.1,0,.1-.1.1-.2V38a2,2,0,0,0-.4-.8l-.1-.2a6.73,6.73,0,0,0-.7-1.1,2.47,2.47,0,0,0-1.9-1.2H40v.1Z" transform="translate(-0.03 0)"/><path class="cls-1" d="M27.6,15.8h0c.1.2.3.4.4.6a2.65,2.65,0,0,1,.5.6l.1.1.2-.1v-.1h0a5.24,5.24,0,0,0-1-1.1l-.1-.1h-.1v.1Z" transform="translate(-0.03 0)"/><path class="cls-1" d="M110,43.6l.3-.2h.1v-.2l-.1-.1h-.1a2.94,2.94,0,0,0-1.6,1.5h0c0,.1.1.1.1.2h.1v-.1A2.54,2.54,0,0,1,110,43.6Z" transform="translate(-0.03 0)"/><path class="cls-1" d="M11,35.7v.2l.1.1h.1a9.76,9.76,0,0,1,4.4-1h.1l.1-.1v-.2h-.1a9.73,9.73,0,0,0-4.7,1Z" transform="translate(-0.03 0)"/><path class="cls-1" d="M113.7,47a4.76,4.76,0,0,0,2.3-.7l.1-.1v-.1c0-.1,0-.1-.1-.1h-.2a6,6,0,0,1-1.9.6.9.9,0,0,0-.5.1h-.1v.2l.1.1Z" transform="translate(-0.03 0)"/><path class="cls-1" d="M23.9,8.5l-.1-.1h-.1a.1.1,0,0,0-.1.1h0l.5.9c.5.9,1,1.7,1.5,2.6a10.92,10.92,0,0,0,1.3,1.7v.1A4.43,4.43,0,0,0,28.4,15h.1l.1-.1v-.1h0c-.1-.1-.3-.2-.4-.3l-.2-.3a4.62,4.62,0,0,1-.7-.7A18.26,18.26,0,0,1,26,11.9c-.5-.8-1-1.5-1.4-2.3Z" transform="translate(-0.03 0)"/><path class="cls-1" d="M41.6,26.3v-.1c.1-.1.1-.3.2-.4h0v-.2l-.2-.1-.1.1a2,2,0,0,0-.4.8v.1l.2.1.1-.1C41.5,26.5,41.5,26.4,41.6,26.3Z" transform="translate(-0.03 0)"/><path class="cls-1" d="M13.9,9.7h0a8.34,8.34,0,0,0-3.4-1h-.1V9h.1a5.55,5.55,0,0,1,2.2.6c.3.1.6.3.9.4l.1.1.1-.1V9.7Z" transform="translate(-0.03 0)"/><path class="cls-1" d="M43.3,26.1c-.2.2-.4.3-.6.5a5.24,5.24,0,0,0-1.1,1,11.26,11.26,0,0,0-1.5,2.1v.2l.2.1.1-.1a6.07,6.07,0,0,0,.7-1l.6-.9A15.38,15.38,0,0,1,43,26.8l.6-.5.1-.1v-.1c0-.1,0-.1-.1-.1h-.1Z" transform="translate(-0.03 0)"/><path class="cls-1" d="M46.9,22.3h0c0,.1,0,.2.1.2h.2l.1-.1.3-.4a4.06,4.06,0,0,1,2.5-1.9h.1v-.2l-.1-.1h0A4.86,4.86,0,0,0,46.9,22.3Z" transform="translate(-0.03 0)"/><path class="cls-1" d="M48.2,22.3a20.28,20.28,0,0,0-1.3,1.8c-.2.4-.5.7-.7,1.1h0c0,.1,0,.1.1.1h.1l.1-.1c.3-.4.5-.8.8-1.2a12.13,12.13,0,0,1,1-1.4,3.59,3.59,0,0,1,2.6-1.7H51v-.2l-.1-.1h-.1A4.15,4.15,0,0,0,48.2,22.3Z" transform="translate(-0.03 0)"/><path class="cls-1" d="M32.6,14.4a24.88,24.88,0,0,1,1.1,2.9l.2.8v.2h.2V18a19,19,0,0,0-1.4-4,16.29,16.29,0,0,0-1.1-1.7,3.59,3.59,0,0,0-1.4-1h-.1l-.1.1v.2h.1a2.76,2.76,0,0,1,1.3,1.1A6.57,6.57,0,0,1,32.6,14.4Z" transform="translate(-0.03 0)"/><path class="cls-1" d="M44.6,19.8h0V20l.2.1.1-.1.4-.4a5,5,0,0,1,1.9-1.3h.1v-.2l-.1-.1h-.1a5.13,5.13,0,0,0-2.3,1.5Z" transform="translate(-0.03 0)"/><path class="cls-1" d="M34.2,20a5.84,5.84,0,0,0,.8,2.2c0,.1.1.1.2.1s.1-.1.1-.2V22a18,18,0,0,1-.8-2.1v-.1h-.1l-.1.1Z" transform="translate(-0.03 0)"/><path class="cls-1" d="M30.8,11.3h0l-.1.2h.1c1.8.8,2.7,2.8,3.5,4.5a19.89,19.89,0,0,1,1.3,3.4l.4,1.2.9,2.7.1.1.3-.1v-.2c-.3-.9-.6-1.8-.9-2.6a40.92,40.92,0,0,0-1.8-4.9c-.9-1.8-1.8-3.7-3.5-4.4C30.9,11.2,30.9,11.2,30.8,11.3Z" transform="translate(-0.03 0)"/><path class="cls-1" d="M33.8,12.1h-.2l-.1.1v.1h.1c1.8,1.2,2.6,3.5,3.3,5.5a29.92,29.92,0,0,1,.8,3.2l.1.6a9.47,9.47,0,0,0,.7,2.9c0,.1.1.1.2.1s.1-.1.1-.2v-.1a9.47,9.47,0,0,1-.7-2.9l-.1-.6a28.06,28.06,0,0,0-.8-3.1C36.5,15.5,35.6,13.3,33.8,12.1Z" transform="translate(-0.03 0)"/><path class="cls-1" d="M46.4,23h0v-.2h-.2l-.1.1a8.26,8.26,0,0,0-.7,1.3,5.07,5.07,0,0,1-.9,1.6h0V26l.2.1.1-.1a5.44,5.44,0,0,0,1.1-1.8A6.12,6.12,0,0,1,46.4,23Z" transform="translate(-0.03 0)"/><path class="cls-1" d="M32.9,42.6a6.48,6.48,0,0,1,3.4,1.7l.1.1.2-.1v-.1h0a5.94,5.94,0,0,0-3.5-1.8,5.55,5.55,0,0,0-4,.4H29V43h.1A5,5,0,0,1,32.9,42.6Z" transform="translate(-0.03 0)"/><path class="cls-1" d="M36.7,46.8l.1-.1v-.2h-.1a28.1,28.1,0,0,0-5-.4h-.1l-.1.1v.1h.1c1.8.2,3.4.4,5.1.5Z" transform="translate(-0.03 0)"/><path class="cls-1" d="M30.7,46.9v-.1h-.2c-2.5.3-4.2,2.4-5.7,4.3l-.1.1v.2l.2.1.4-.4a22,22,0,0,1,2-2.3,6.49,6.49,0,0,1,3.2-1.6c.1-.1.2-.1.2-.3Z" transform="translate(-0.03 0)"/><path class="cls-1" d="M34.1,44.1h0l.2-.1v-.2h-.1a6.4,6.4,0,0,0-5.4.4,14.7,14.7,0,0,0-4.3,3.5h0c0,.1,0,.1.1.1h.1l.1-.1C27,45.2,30.6,42.8,34.1,44.1Z" transform="translate(-0.03 0)"/><path class="cls-1" d="M41.4,24.9V25h.2v-.1l.6-1.5c.2-.5.5-1.4.8-2a7,7,0,0,1,2.4-3l.1-.1v-.2l-.1-.1h-.1c-2,1.2-2.7,3.4-3.5,5.5Z" transform="translate(-0.03 0)"/><path class="cls-1" d="M23.2,48.9h0a.35.35,0,0,0-.1-.2c-.1,0-.1,0-.2.1a16.87,16.87,0,0,0-1.1,6.7.22.22,0,0,0,.2.2h0v-.1c0-1.1.1-2.1.2-3.2A14,14,0,0,1,23.2,48.9Z" transform="translate(-0.03 0)"/><path class="cls-1" d="M13.8,12.3h-.1a3.4,3.4,0,0,0-1-.1,5.08,5.08,0,0,1-1.7-.3h-.1l-.1.1v.2h.1a7.46,7.46,0,0,0,2.6.4h.2l.1-.1v-.2Z" transform="translate(-0.03 0)"/><path class="cls-1" d="M42.1,28.7a6.43,6.43,0,0,0-1.8,2.7v.2h.2c-.3.4-.6.8-.8,1.1v.1l.1.1h-.1v.2h.1l.1.1.1-.1.5-.3a9.13,9.13,0,0,1,1.3-.8,18,18,0,0,1,2.1-.8,25,25,0,0,1,3.8-.6,1.7,1.7,0,0,0,.7-.1h.2v-.2l-.1-.1h-.1a25.42,25.42,0,0,0-4.7.7,7,7,0,0,0-2,.8c-.1,0-.2.1-.3.1a9,9,0,0,0,1-.9v-.2l-.2-.1-.3.2c-.6.6-1.3,1.1-2,1.7a18.07,18.07,0,0,1,2.9-3.3A7.61,7.61,0,0,1,44.7,28a17.23,17.23,0,0,1,2.1-.7l.4-.1V27H47a7.8,7.8,0,0,0-4.3,2,16.07,16.07,0,0,0-2.2,2.3,10.39,10.39,0,0,1,1.7-2.4,11.38,11.38,0,0,1,2.5-1.8h.1v-.2l-.1-.1h-.1A9.2,9.2,0,0,0,42.1,28.7Z" transform="translate(-0.03 0)"/><path class="cls-1" d="M35.2,48h-.1l-.1.1v.2h.1a6.15,6.15,0,0,0,3.3-.3l.2-.1h.1v-.1c0-.1,0-.1-.1-.1h-.2A5.7,5.7,0,0,1,35.2,48Z" transform="translate(-0.03 0)"/><path class="cls-1" d="M23.4,16.4v-.1h-.1A11,11,0,0,1,20,15.1h0l-.1.1v.2H20a9.85,9.85,0,0,0,3.4,1.2h.1l-.1-.2Z" transform="translate(-0.03 0)"/><path class="cls-1" d="M35.6,47.5h-.2v.3h.1a8.42,8.42,0,0,0,2.7-.4h.1v-.1c0-.1,0-.1-.1-.1h-.1Z" transform="translate(-0.03 0)"/><path class="cls-1" d="M57.2,57a36.36,36.36,0,0,1,3.4-3.4l.1-.1v-.1c0-.1,0-.1-.1-.1h-.1l-.1.1a44,44,0,0,0-3.8,3.7,30.24,30.24,0,0,1-3.1,3.1v.1l.2.1h.1A27.29,27.29,0,0,0,57.2,57Z" transform="translate(-0.03 0)"/><path class="cls-1" d="M101.8,34.5h0a.31.31,0,0,0,.2.1,2.64,2.64,0,0,1,2.3.1l.1.1c.4.3.6.5.7.5s.1,0,.1-.1h0v-.1L105,35h0c-.1-.1-.3-.2-.4-.4l-.1-.1a2.51,2.51,0,0,0-.7-.4,3.76,3.76,0,0,0-2.1.1.77.77,0,0,1,.1.3Z" transform="translate(-0.03 0)"/><path class="cls-1" d="M90.8,35.2h0a7.92,7.92,0,0,1,.6,2.9h0c0,.1.1.2.2.1a.22.22,0,0,0,.2-.2v-.2a7.27,7.27,0,0,0-.7-2.9c0-.1-.1-.1-.2-.1l-.1.1Z" transform="translate(-0.03 0)"/><path class="cls-1" d="M86.9,27.6h0a15,15,0,0,1,2,2.4c.2.3.4.7.6,1l.9,1.5.1.1h.1c.1,0,.1-.1.1-.2h0c-.5-.8-1-1.7-1.6-2.6a13.65,13.65,0,0,0-1.9-2.3l-.2-.1h0C86.9,27.4,86.9,27.5,86.9,27.6Z" transform="translate(-0.03 0)"/><path class="cls-1" d="M89.4,33.7c0,.1.1.1.2.1h0c.1,0,.1-.1.1-.2v-.1a14.25,14.25,0,0,0-2.5-4.3c-.3-.3-.6-.7-.9-1a8.7,8.7,0,0,1-2.2-3.4c0-.1-.1-.1-.2-.1h-.1V25A9,9,0,0,0,86,28.6c.2.3.5.5.6.8a10.09,10.09,0,0,1,1.5,2.1,15.05,15.05,0,0,1,1.1,2.2Z" transform="translate(-0.03 0)"/><path class="cls-1" d="M63.4,39v-.2a13.59,13.59,0,0,0-.7-3.5,10.37,10.37,0,0,1-.4-1,9,9,0,0,1-.8-2.8v-.2a.1.1,0,0,0-.1-.1h-.2v.1a6.43,6.43,0,0,0,.7,3.1l.3.7c.2.6.4,1.3.6,1.9s.2,1.3.3,2c0,.1.1.1.2.1h.2Z" transform="translate(-0.03 0)"/><path class="cls-1" d="M101.4,36.8a5.08,5.08,0,0,1,3.2-.5h.1l.1-.1V36h-.1a5.59,5.59,0,0,0-3.4.5,6.89,6.89,0,0,0-1.3,1.1c-.2.4-.4.7-.6,1.1a4.05,4.05,0,0,1-.5.9h0a.35.35,0,0,0,.1.2c.1,0,.2,0,.2-.1a10.91,10.91,0,0,0,.6-1.1,4.88,4.88,0,0,0,.3-.7A6.89,6.89,0,0,1,101.4,36.8Z" transform="translate(-0.03 0)"/><path class="cls-1" d="M86.2,38.7a10.59,10.59,0,0,1,1.2,1l.1.1.5.4a6.47,6.47,0,0,1,.9.8h.2c.1,0,.1-.1.1-.2v-.1h0a5.72,5.72,0,0,0-.8-.7l-.4-.3v-.1l-1.3-1.1a17.48,17.48,0,0,0-2.9-1.8,15.53,15.53,0,0,0-3.6-.8c-1.3-.1-2.6-.1-3.9-.1h-.1L76,36v.2h.2a21.85,21.85,0,0,1,7.2.8A11.65,11.65,0,0,1,86.2,38.7Z" transform="translate(-0.03 0)"/><path class="cls-1" d="M83.4,50.4a29,29,0,0,1,2.9-1.9l.1-.1v-.1c0-.1,0-.1-.1-.1h-.1a18.08,18.08,0,0,0-2.9,1.9,5.81,5.81,0,0,0-2.1,2.8h0a.22.22,0,0,0,.2.2c.1,0,.2,0,.2-.1A4,4,0,0,1,83.4,50.4Z" transform="translate(-0.03 0)"/><path class="cls-1" d="M64,40.5v-.1h-.3V41a5.66,5.66,0,0,1-.3,1.8v.1a.1.1,0,0,0,.1.1h.1v-.1a4.67,4.67,0,0,0,.3-1.7A2,2,0,0,0,64,40.5Z" transform="translate(-0.03 0)"/><path class="cls-1" d="M62.9,40.9V40h-.3v.1a3.3,3.3,0,0,1,0,1.4,2,2,0,0,1-.1.7l-.1.7V43h.1c.1,0,.2,0,.2-.1A12.31,12.31,0,0,0,62.9,40.9Z" transform="translate(-0.03 0)"/><path class="cls-1" d="M65.3,40V39h0a7.57,7.57,0,0,0-.1-1.5,6.11,6.11,0,0,0-.7-2.4l-.1-.1h-.2v.2a6.15,6.15,0,0,1,.7,2.3v2.4c0,.1.1.1.2.1Z" transform="translate(-0.03 0)"/><path class="cls-1" d="M104.6,50.2a10,10,0,0,1-1.4-.8c-.4-.3-.7-.6-1.1-.9l-.3-.3a7.63,7.63,0,0,0-3.2-1.7h-.1l-.1.1v.2h.1a7.82,7.82,0,0,1,3.2,1.8l.2.1,1.2.9a5.07,5.07,0,0,0,1.6.9h.1l.1-.1v-.2Z" transform="translate(-0.03 0)"/><path class="cls-1" d="M71,44a4.33,4.33,0,0,0-1.2.5,2.34,2.34,0,0,0-.7.7l-.5.5-.1.1v.1c0,.1,0,.1.1.1h.2c.2-.2.5-.4.7-.6l.4-.4a3.1,3.1,0,0,1,1.3-.6,3.36,3.36,0,0,1,2.4.4h.1l.1-.1v-.2h-.1A3.78,3.78,0,0,0,71,44Z" transform="translate(-0.03 0)"/><path class="cls-1" d="M102,49.8h-.1a.1.1,0,0,0-.1.1V50h0a3.77,3.77,0,0,0,1.6,1.2,5.22,5.22,0,0,0,2.1.4.22.22,0,0,0,.2-.2.35.35,0,0,0-.1-.2h0a.9.9,0,0,1-.5-.1,5.77,5.77,0,0,1-1.4-.3,2.7,2.7,0,0,1-1.7-1Z" transform="translate(-0.03 0)"/><path class="cls-1" d="M89.3,66.3l-.6.7c-.5.6-1,1.3-1.5,2v.2h.2v-.1a13.3,13.3,0,0,1,1.4-1.9l.5-.6a17.41,17.41,0,0,0,1.2-1.4h0c0-.1,0-.1-.1-.1h-.1l-.1.1C90,65.5,89.6,65.9,89.3,66.3Z" transform="translate(-0.03 0)"/><path class="cls-1" d="M98.4,63h0a.1.1,0,0,0-.1-.1h-.1l-.1.1a2.18,2.18,0,0,1-.4.5c-.1.1-.3.2-.4.3H97v.3h.2A1.87,1.87,0,0,0,98.4,63Z" transform="translate(-0.03 0)"/><path class="cls-1" d="M97.6,61.2V59.1a11.67,11.67,0,0,0-.8-3.7,30.71,30.71,0,0,0-1.7-3.1l-.2-.3a6,6,0,0,1-1.2-3.1v-.2a.22.22,0,0,0-.2-.2.35.35,0,0,0-.2.1,5,5,0,0,0,1,3.1l.6,1a20.13,20.13,0,0,1,1.4,2.5,12.41,12.41,0,0,1,.9,3.8v2a6.15,6.15,0,0,1-.1,1.3h0v.1c0,.1,0,.1.1.2h.2l.1-.1A6.15,6.15,0,0,0,97.6,61.2Z" transform="translate(-0.03 0)"/><path class="cls-1" d="M86.6,58.5a.1.1,0,0,0,.1.1h.2v-.1a7.85,7.85,0,0,1,1.7-5.3V53h-.2l-.1.1A8.64,8.64,0,0,0,86.5,58,1.09,1.09,0,0,0,86.6,58.5Z" transform="translate(-0.03 0)"/><path class="cls-1" d="M89.8,57.8a3.38,3.38,0,0,1,.2-2,4.67,4.67,0,0,1,.5-1l.3-.7v-.2h-.2V54l-.3.7a5.27,5.27,0,0,0-.8,2.4,2.2,2.2,0,0,0,.1.8V58h.1l.1-.1Z" transform="translate(-0.03 0)"/><path class="cls-1" d="M87.8,56.4a3.4,3.4,0,0,0-.1,1,7.57,7.57,0,0,0,.1,1.5,13.4,13.4,0,0,1,.1,2,10.64,10.64,0,0,1-.9,2.5,14.67,14.67,0,0,0-.6,1.4,27.92,27.92,0,0,0-1,3.9l-.1.5v.1h.2v-.1a16,16,0,0,0,.5-2.1c.2-.8.4-1.5.6-2.3l.6-1.5a8.49,8.49,0,0,0,.9-2.2,9.64,9.64,0,0,0,0-2.4,13.4,13.4,0,0,1-.1-2,9.5,9.5,0,0,1,1.3-3.3l.4-.6h0v-.1l-.2-.1-.1.1-.3.5A21.49,21.49,0,0,0,87.8,56.4Z" transform="translate(-0.03 0)"/><path class="cls-1" d="M106.7,45.2h0c-2-2.1-5.1-3.4-7.6-1.7H99v.1c0,.1,0,.1.1.1h.2a4.59,4.59,0,0,1,3.8-.5,8.66,8.66,0,0,1,3.5,2.2l.1.1.2-.1Z" transform="translate(-0.03 0)"/><path class="cls-1" d="M96.8,50.4a16.61,16.61,0,0,1,1.4,1.3,7.43,7.43,0,0,1,1.3,2.1,10.55,10.55,0,0,1,.6,2.4c0,.1.1.1.2.1h0a.1.1,0,0,0,.1-.1V56a7.14,7.14,0,0,0-1.7-4.2,12.09,12.09,0,0,0-1.6-1.6,9.52,9.52,0,0,1-1.9-2.1c0-.1-.1-.1-.2-.1h-.1v.2h0A5.74,5.74,0,0,0,96.8,50.4Z" transform="translate(-0.03 0)"/><path class="cls-1" d="M101.6,55.7h0a4.33,4.33,0,0,1-.1,1.6v.2a.1.1,0,0,0,.1.1h.1v-.1a5,5,0,0,0,.2-1.2,1.7,1.7,0,0,0-.1-.7v-.1h-.1c-.1,0-.1,0-.1.2Z" transform="translate(-0.03 0)"/><path class="cls-1" d="M97,48.2a10.1,10.1,0,0,1,1.6,1.3,10.92,10.92,0,0,1,1.3,1.7l.1.1h.2V51a8.11,8.11,0,0,0-3-3.1h-.1l-.2.1.1.2Z" transform="translate(-0.03 0)"/><path class="cls-1" d="M86.1,39.8v-.1H86l-.4-.2a4.35,4.35,0,0,0-.7-.4l-.8-.5-.4-.3a9,9,0,0,0-2.4-1.2h-.1l-.1.1v.1h.1a7.55,7.55,0,0,1,2.3,1.3l.4.3a16.18,16.18,0,0,0,1.8,1c.2,0,.3,0,.4-.1Z" transform="translate(-0.03 0)"/><path class="cls-1" d="M64.5,57.2a4.1,4.1,0,0,0-.1-1.1,12.09,12.09,0,0,0-.5-1.8,13.32,13.32,0,0,1-.5-1.9v-.2h-.3v.1a16,16,0,0,0,.5,2.1A7.49,7.49,0,0,1,64,56a3.4,3.4,0,0,1,.1,1,7.57,7.57,0,0,1-.1,1.5c0,.3-.1.7-.1,1a.22.22,0,0,0,.2.2h.1v-.1l.1-.5C64.4,58.4,64.4,57.8,64.5,57.2Z" transform="translate(-0.03 0)"/><path class="cls-1" d="M66.4,58.1a3.7,3.7,0,0,1-.5,1.1l-.1.2v.1l.2.1.1-.1a3.51,3.51,0,0,0,.6-1.4h0a.1.1,0,0,0-.1-.1h-.1Z" transform="translate(-0.03 0)"/><path class="cls-1" d="M67.5,48.5v.2l.1.1h.1a3.7,3.7,0,0,1,2.9.6,6.61,6.61,0,0,1,2,2.4l.1.1.2-.1v-.2c-1-2-2.9-3.8-5.2-3.2Z" transform="translate(-0.03 0)"/><path class="cls-1" d="M62.4,62.6v-.2l-.2-.1h-.1c-.1.1-.3.2-.4.3s-.3.1-.4.1h-.2a.1.1,0,0,0-.1.1v.1h.1a1.26,1.26,0,0,0,1.3-.3Z" transform="translate(-0.03 0)"/><path class="cls-1" d="M64.9,51.4h0c.3.4.6.9.9,1.3a8.8,8.8,0,0,1,.5,1.5v.1h.3v-.1a6.9,6.9,0,0,0-1.4-3H65l-.2.1Z" transform="translate(-0.03 0)"/><path class="cls-1" d="M71.9,48.7v.2H72a1.33,1.33,0,0,1,.6,1,.76.76,0,0,0,.2.5l.1.1.2-.1v-.2a1.89,1.89,0,0,0-.9-1.6c-.2,0-.2,0-.3.1Z" transform="translate(-0.03 0)"/><path class="cls-1" d="M67.9,43.4a7.55,7.55,0,0,0-1.4,1.1h0v.1l.1.1h.1l.4-.3c.1-.1.2-.1.2-.2a3,3,0,0,1,.7-.5,10.93,10.93,0,0,1,1.5-.8h.1v-.1c0-.1,0-.1-.1-.1h-.2A6.07,6.07,0,0,0,67.9,43.4Z" transform="translate(-0.03 0)"/><path class="cls-1" d="M67.3,42.5l-.3.2a6.73,6.73,0,0,0-1.4,1.5v.1c0,.1,0,.1.1.1h.1l.1-.1.7-.7a4.62,4.62,0,0,1,.7-.7c.5-.4.9-.9,1.4-1.3a2.72,2.72,0,0,1,1.7-.6,2.92,2.92,0,0,1,.9.2c.3.1.5.1.8.2h0l.1-.1v-.2h-.1a1.85,1.85,0,0,1-.7-.2,3.55,3.55,0,0,0-1-.2,2.72,2.72,0,0,0-1.7.6A17.41,17.41,0,0,0,67.3,42.5Z" transform="translate(-0.03 0)"/><path class="cls-1" d="M19,.1a5.87,5.87,0,0,0-.4,2.3c0,2.6,1.5,5.2,2.6,7.3a28.51,28.51,0,0,0,3.1,4.6A20,20,0,0,0,27.4,17l1,.8a.55.55,0,0,0,.5.3v.5c.1.6.2,1.3.3,1.9.1.4.1.8.2,1.2v.1l-.1-.1h-.1a4.23,4.23,0,0,1-.7-.5l-.1-.1-1.1-.9-.6-.5c-.7-.6-1.3-1-1.9-1.5l-.1-.1a4.13,4.13,0,0,0-1.1-.7v-.1a.35.35,0,0,0-.1-.2l-1.1-.4a28.27,28.27,0,0,1-3.1-1.1h-.2a.19.19,0,0,0,0,.3h0A23.29,23.29,0,0,0,21.9,17l.4.1.8.3-.1.1c-.4.3-1.2.1-1.7,0h-.1a29.06,29.06,0,0,1-5.1-2.2l-.7-.4-.4-.2-1.9-1-.2-.1h0a2.77,2.77,0,0,1,.9.1,10.39,10.39,0,0,1,3.5.7h.1a.31.31,0,0,0,.1-.2h0l-.1-.1a9.86,9.86,0,0,0-3.7-.8,14.46,14.46,0,0,1-2.9-.4,10.14,10.14,0,0,1-3.2-1.8C7,10.2,6.2,9.4,5.5,8.4a23.69,23.69,0,0,0,3.6.9l.3.1a20.48,20.48,0,0,1,2.4.5c.5.1,1.1.4,1.6.5l.7.2h.1l.1-.1v-.2h-.1a9,9,0,0,0-2.3-.8A22.5,22.5,0,0,0,9.7,9H9.1c-1.2-.3-2.4-.5-3.6-.9h.3a7.44,7.44,0,0,1,2.6.2h.2a.19.19,0,0,0,0-.3l-.1-.1a8,8,0,0,0-2.7-.2H5.7a4.67,4.67,0,0,1,1.7-.3h.1a20.9,20.9,0,0,1,2.5.1,20.65,20.65,0,0,1,4.9,1.2,17,17,0,0,1,4.4,2.4,13.69,13.69,0,0,1,3.6,3.6l.5.8.4.6-.8-.6a52.12,52.12,0,0,0-5.6-3.4h-.1l-.1.1h0a47.17,47.17,0,0,1,6.1,3.7l.5.3H24a6.89,6.89,0,0,0,1.1,1.3,14.63,14.63,0,0,0,1.3.9l.5.3A10.92,10.92,0,0,1,28.6,20l.1.1.2-.1v-.1h0a11.6,11.6,0,0,0-2.1-1.6l-.1-.1a6.07,6.07,0,0,1-1-.7,2.84,2.84,0,0,1-.9-1,13,13,0,0,1-1-1.5,4.35,4.35,0,0,1-.4-.7,10,10,0,0,0-1.6-2,20.56,20.56,0,0,0-8.6-4.9,21.27,21.27,0,0,0-4.4-.7,13.4,13.4,0,0,0-2,.1,3.75,3.75,0,0,0-1.9.9c-.1,0-.1.1,0,.2h0v.3H5a12.8,12.8,0,0,0,5.6,4.7,6.15,6.15,0,0,0,1.1.3h.1a5.91,5.91,0,0,1,1.4.6c.1,0,.2.1.3.2l1.6.8,1.2.6c.8.4,1.9,1,3.1,1.5a11.42,11.42,0,0,0,2.6.9,1.63,1.63,0,0,0,1.5-.2,4.13,4.13,0,0,1,1.1.7l.2.1c.6.5,1.3,1,1.9,1.5l.6.5a10.59,10.59,0,0,0,1.2,1l.1.1c.3.3.6.5.8.4l.1-.1a12.94,12.94,0,0,0,1.2,3.8,6.6,6.6,0,0,0-2.8-.9h-.1a3.88,3.88,0,0,0-.8-3.1,6.3,6.3,0,0,0-2.6-2,20.61,20.61,0,0,0-6.8-1.7h-.7V18h-.2l.2.1c0,.1,0,.1.1.2a13.25,13.25,0,0,1,2.5,1.6A11.79,11.79,0,0,1,21.3,22a13.3,13.3,0,0,0,1.4,1.9,2.36,2.36,0,0,0,.9.8h0a13.55,13.55,0,0,0-5.2,1.5,8.26,8.26,0,0,1-1.3.7h0a.22.22,0,0,0-.2-.2,16.45,16.45,0,0,1-4.9-1c-.5-.2-1.1-.4-1.6-.6a11.42,11.42,0,0,0-2.6-.9,11.31,11.31,0,0,0-4.1-.1l.9-.3A7.54,7.54,0,0,1,7,23a17.9,17.9,0,0,1,4-.2h.6a15.65,15.65,0,0,1,6.1,1h.2a.1.1,0,0,0,.1-.1c0-.1,0-.1-.1-.2a8.87,8.87,0,0,0-3.2-.8c-1.1-.1-2.3-.2-3.4-.2h-.2a17.9,17.9,0,0,0-4,.2,23.55,23.55,0,0,0-3.8,1,16.07,16.07,0,0,1,3.3-1.2,16.11,16.11,0,0,1,5.8-.4,23.25,23.25,0,0,1,2.8.5,13.82,13.82,0,0,1,2.7.8,9.14,9.14,0,0,1,1.4.7l.3.2h.1c.6.4.8.5,1,.4h.1v-.1a.1.1,0,0,0-.1-.1l-.1-.1h0l-.4-.4-.6-.4-.1-.1-1.8-.9a12.21,12.21,0,0,0-2.6-.6,14.46,14.46,0,0,0-2.9-.4A15.9,15.9,0,0,0,3.9,23a17.66,17.66,0,0,1,6.8-2.7c3.8-.6,7.3,1.4,9.5,3.2.4.3.8.7,1.2,1l.1.1.2-.1v-.2h0A15.42,15.42,0,0,0,13,19.9c-4-.4-7.9,1.9-10.4,3.6A17.06,17.06,0,0,0,.1,25.3a.19.19,0,0,0,0,.3H.3a10.57,10.57,0,0,1,7.8-1.2,10.66,10.66,0,0,1,1.9.7,11.72,11.72,0,0,0,2.4.9,17.12,17.12,0,0,0,4.5.9h0l-.5.2a8,8,0,0,0-1.9,1.3l-.2.2a.19.19,0,0,0,0,.3h.2a5.12,5.12,0,0,1,3.6,1.7,2.18,2.18,0,0,1,.5.4c.8.6,1.6,1.1,2.4,1.6a2.09,2.09,0,0,1,.6.4,11,11,0,0,0-4.7,1l-.6.2a2.91,2.91,0,0,0-2.4-1.4,10.92,10.92,0,0,0-3.6.2,7.27,7.27,0,0,0-3.1,1.4,18,18,0,0,0-3.9,3.9,1.91,1.91,0,0,1-.5,1c-.2.3-.7.9-1,1.3a3.86,3.86,0,0,0-.8,2V43c0,.1.1.2.2.1h.2a1.7,1.7,0,0,1,.7-.1.76.76,0,0,1,.4.2l.3.1a1.47,1.47,0,0,1,.6.5.55.55,0,0,0,.5.3A3.84,3.84,0,0,0,6,43.6a8,8,0,0,0,2.1-1.5l.7-.6c.4-.3.7-.6,1.1-.9a10.54,10.54,0,0,0,1.1-.7,10.37,10.37,0,0,1,1-.4,12.44,12.44,0,0,0,2-1c1.7-1,2.5-2,2.5-3.2h0a18.77,18.77,0,0,1,4.8-1.2l2-.3h.1a12.86,12.86,0,0,0,1.9.4l-.1.1-.7.4c-.3.1-.5.3-.8.4A14.42,14.42,0,0,0,21,37.3c-.8.8-1.6,1.6-2.3,2.4h0a11.38,11.38,0,0,0-1.8,2.5v.1h0c0,.1,0,.1.1.1a.35.35,0,0,0,.2.1,4.79,4.79,0,0,0,2-.7l.2-.1c.3-.2.7-.3,1-.5l1.5-.3H22a16.15,16.15,0,0,1,2.2,0h1.1a26.2,26.2,0,0,0,2.8-.1,22.39,22.39,0,0,0,5.7-.8l1.5-.6c0,.2-.1.4-.1.6a7.94,7.94,0,0,0,.6,2.2l.2.4-.6-.3a9.34,9.34,0,0,0-3.6-1.4,8.71,8.71,0,0,0-5.2,1.2,7.47,7.47,0,0,0-2.5,2.8,3.51,3.51,0,0,0-.5.8,6.47,6.47,0,0,1-.8.9,3.92,3.92,0,0,0-.8,1,9.06,9.06,0,0,0-1.1,2.2,7.88,7.88,0,0,0-.2,4.3,10.84,10.84,0,0,0,.8,1.9c.2.3.4.5.6.8a3.59,3.59,0,0,1,.7,1,.19.19,0,0,0,.3,0l.1-.1a11.8,11.8,0,0,0,.4-2,6.47,6.47,0,0,1,.4-2,3,3,0,0,1,1.8-1.5h.1a4.67,4.67,0,0,0,1-.5,2.84,2.84,0,0,0,1-.9c.2-.2.3-.4.5-.6a3.46,3.46,0,0,1,1-1.1,3.32,3.32,0,0,1,1.6-.5,10.32,10.32,0,0,1,3,.4l1.1.2a8.17,8.17,0,0,0,2.7.1A3.35,3.35,0,0,0,40,47.5c0,.1.1.3,0,.4v1a.75.75,0,0,1-.1.5,2.36,2.36,0,0,1-1.4,1.2c-.1.1-.2.2-.1.3V51a2.22,2.22,0,0,0,1.6.3h.5A4,4,0,0,0,42,51a2,2,0,0,0,1-1.5,2.47,2.47,0,0,1,.8-1.6l.5-.5a5.24,5.24,0,0,0,1-1.1,3.55,3.55,0,0,0,.4-.9,7.08,7.08,0,0,0,1.4.1h.1a10.87,10.87,0,0,0,1.8-.1,2.77,2.77,0,0,0,.9-.1c1-.1,2-.1,3-.1H53l.1-.1v-.2h-.9v-.1H49a10.87,10.87,0,0,0-1.8.1H45.8c0-.2.1-.4.1-.6.5,0,1.1-.1,1.6-.1s1.4-.1,2-.1c1.3,0,2.6.1,3.9.2h.1v-.2l.9.4a8.86,8.86,0,0,0-3,2.4,7.38,7.38,0,0,0-1.5,4.5,7.61,7.61,0,0,0,.3,2.1,3.89,3.89,0,0,0,1.5,2.3h.2c.1-.1.2-.2.1-.3v-.3c-.1-.2-.1-.3-.2-.5s-.1-.3-.2-.5a2.44,2.44,0,0,1,0-1.2.76.76,0,0,1,.2-.5c.1-.1.2-.2.5,0a1.85,1.85,0,0,0,.7.2.91.91,0,0,0,.7-.3c.2-.1.5-.2.7-.3a2.2,2.2,0,0,1,.8.1h.1a2.2,2.2,0,0,0,1.4.1h0a5.51,5.51,0,0,0-2,1.7,6,6,0,0,0-.9,1.5,4.18,4.18,0,0,0-.4,1c-.1.3-.2.5-.3.8a8.68,8.68,0,0,1-1.6,2.3c-.2.2-.4.5-.6.7a13.73,13.73,0,0,0-1.3,2,7.84,7.84,0,0,1-1,1.5v.1h0V64l-.3.4.3-.3h.2l.6-.5A6.91,6.91,0,0,1,51.6,62a7.94,7.94,0,0,1,2.2-.6,11.63,11.63,0,0,0,1.8-.4,10.8,10.8,0,0,0,3.9-2.8,9.43,9.43,0,0,0,1-1l-.1.3a2.62,2.62,0,0,0,.2,1.5c.1.1.1.2.2.3s.1.2.2.4a2,2,0,0,1,.1.8,2.34,2.34,0,0,1-1,1.2l-.3.2a6.42,6.42,0,0,0-1.3,1c-.6.5-.6.9-.3,1h.6c.2,0,.4-.1.7-.1h1.1a3.4,3.4,0,0,0,1-.1,3,3,0,0,0,1.3-.5,4.74,4.74,0,0,0,1-1l.2-.2c.1-.1.2-.3.3-.4a1.79,1.79,0,0,1,.7-.5l.3-.2a6.73,6.73,0,0,0,1.1-.7,4.19,4.19,0,0,0,.9-1.4,4.31,4.31,0,0,0,.4-2.2v-.2a2.2,2.2,0,0,0,.8.1.64.64,0,0,1,.6,0,2.19,2.19,0,0,1,.5.3,2.18,2.18,0,0,0,.8.5,2.38,2.38,0,0,0,1.2-.3l.3-.1a1.41,1.41,0,0,1,.9-.1,1.27,1.27,0,0,1,.6.1c.1,0,.3.1.4.1h.2a.19.19,0,0,0,0-.3H74l-.1-.1-.1-.1a1.08,1.08,0,0,1-.3-.7,4.73,4.73,0,0,1-.1-1.7,2.92,2.92,0,0,1,.2-.9,6.37,6.37,0,0,1,.2-.7,1.7,1.7,0,0,0,.1-.7,3,3,0,0,1,.7.5c.4.2.7.5,1.1.7h0a10.09,10.09,0,0,0-1.5-.7h-.1l-.1.1v.2h.1c.5.2.9.5,1.4.7a21,21,0,0,0,2.6,1.3l.1.2-.3-.1a2.35,2.35,0,0,1-.8-.2,6,6,0,0,1-1.1-.6l-.1-.1a3.7,3.7,0,0,0-1.8-.8H74l-.1.1v.1H74a5.56,5.56,0,0,1,1.7.9l.3.2a3.77,3.77,0,0,0,2.1.7h.1a10.08,10.08,0,0,0,1.2,2.3,5.14,5.14,0,0,0,2.7,2.1h.2c.1-.1.1-.1.1-.2a1.42,1.42,0,0,0-.2-.6c-.1-.2-.3-.3-.4-.5l-.5-.5a4.42,4.42,0,0,1-.5-1.5,1.1,1.1,0,0,1,0-.8c.1-.3.3-.3.7-.3a1.39,1.39,0,0,0,.9,0,1.56,1.56,0,0,0,.8-.6,2.7,2.7,0,0,1,.8-.7,3.55,3.55,0,0,1,1-.2h.2c.3,0,.7-.1,1-.1a9.22,9.22,0,0,0-1.6,4.9,5.66,5.66,0,0,0,.3,1.8,4.67,4.67,0,0,1,.3,1.7,2.77,2.77,0,0,1-.1.9c-.1.3-.2.5-.3.8-.1.1-.1.3-.2.4-.2.4-.3.9-.5,1.3a20.48,20.48,0,0,0-.5,2.4,10.48,10.48,0,0,0,.1,2.5,5,5,0,0,0,.2,1.2l.3,1.5a2.46,2.46,0,0,1-.1,1.2h.3l-.1.3.3.2.1-.2.1-.3c.2-.3.5-.6.7-.9l.6-.7.3-.4a10.7,10.7,0,0,1,1.4-1.6,10,10,0,0,0,1.1-1l.8-.7a10.82,10.82,0,0,0,2.7-4.3l.2-.7a13.36,13.36,0,0,1,.7-1.8c.2-.4.4-.7.6-1.1a4.67,4.67,0,0,0,.5-1,2.61,2.61,0,0,0,.3-1.1v-.1a3.51,3.51,0,0,0,.5.8l.4.3c.1.1.3.2.4.4a1.8,1.8,0,0,1,.4.9,2.64,2.64,0,0,1-.7,1.9l-.3.4a9.39,9.39,0,0,0-1.2,1.8c-.3.6-.4,1-.2,1.2a.37.37,0,0,0,.3.1.76.76,0,0,0,.5-.2l.1-.1a5.94,5.94,0,0,1,.8-.4l.3-.1a4.18,4.18,0,0,1,1-.4,6.12,6.12,0,0,0,1.2-.5,4.73,4.73,0,0,0,1.3-1.1,8.86,8.86,0,0,0,.8-1.7l.1-.3c.1-.2.1-.5.2-.7a7,7,0,0,1,.6-.9c.1-.1.2-.3.4-.4a6.42,6.42,0,0,0,1-1.3,4.55,4.55,0,0,0,.5-2,6.55,6.55,0,0,0-.5-3.1,3.55,3.55,0,0,0,1-.2,1.7,1.7,0,0,1,1.6,0,2.54,2.54,0,0,0,1.2.2,4.19,4.19,0,0,0,1.4-.9l.3-.3a2.38,2.38,0,0,1,1.1-.6,2,2,0,0,1,.8-.1l.5-.1h.1a.19.19,0,0,0,.1-.3h0v-.1h-.2a.35.35,0,0,1-.2-.1l-.1-.1a1.85,1.85,0,0,1-.7-.8,5,5,0,0,1-.8-2,4.87,4.87,0,0,1-.1-1.2,2.77,2.77,0,0,0-.1-.9,3.59,3.59,0,0,0-.2-1.1,3.1,3.1,0,0,1,1.9-2.5,5.66,5.66,0,0,1,3.4.2,10.26,10.26,0,0,0,7.3-1,11.78,11.78,0,0,0-1.1,1.9l-.2.4a9.5,9.5,0,0,1-1,1.7,10.91,10.91,0,0,0-.6,1.1,2.51,2.51,0,0,1-.4.7,2.43,2.43,0,0,1-1.5,1.3,3,3,0,0,1-1.6-.2c-.2-.1-.4-.1-.6-.2a3.08,3.08,0,0,0-1.9,0,5.08,5.08,0,0,1-1.7.3h-.1c-.8.1-1,0-1.1-.1a.2.2,0,0,0-.4,0h0c.1.5.7.5,1,.5a11,11,0,0,0,1.8-.2c.2,0,.3-.1.5-.1a2.77,2.77,0,0,1,1.3-.1l.9.3a5.64,5.64,0,0,0,1.2.4,2.64,2.64,0,0,0,1.9-.7,4,4,0,0,0,1-1.5v-.2a10.91,10.91,0,0,1,.6-1.1l.4-.6.6-1.1.5-.9a6.52,6.52,0,0,1,1.6-2.1h0c.1-.1.3-.2.4-.3l.1-.1c0-.1,0-.1-.1-.2h-.2c-.2.1-.3.2-.5.3a13.81,13.81,0,0,1-4.1,1.8,6.92,6.92,0,0,1-2.5.1l-1.7-.3a1.7,1.7,0,0,0-.7-.1,5,5,0,0,0-3.2.2,3.12,3.12,0,0,0-1.6,2.1l-.1-.3a5.22,5.22,0,0,0-3.1-2.9,4.44,4.44,0,0,0-2-.1c-.3.1-.5.2-.8.3s-.5.2-.8.3l.2-.5a4.88,4.88,0,0,1,.3-.7,4.43,4.43,0,0,1,1.2-1.5,2.57,2.57,0,0,1,2.4-.3c.2,0,.5.1.7.1a5.7,5.7,0,0,0,1.3-.1l.5-.1a14.12,14.12,0,0,1,2.2-.1.22.22,0,0,0,.2-.2h0a.82.82,0,0,0-.5-.5l-.5-.1a.9.9,0,0,1-.5-.1,3.51,3.51,0,0,1-1.7-1.7l-.4-.8c-.2-.4-.5-.8-.7-1.2a8.08,8.08,0,0,0-1.6-1.6,5.57,5.57,0,0,0-4.1-1.4,12.09,12.09,0,0,0-1.8.5l-.2.1a4.18,4.18,0,0,0-1.8,1.1,13,13,0,0,0-1,1.5l-.1.2a6.73,6.73,0,0,1-.7,1.1c-.1.2-.3.4-.4.6a8.33,8.33,0,0,0-.3-2.2c-.8-3.3-2.8-5.9-5.4-6.9l-.5-.8a8.75,8.75,0,0,1-2.2-1,4.49,4.49,0,0,1-1.1-1.3,3.92,3.92,0,0,1-.4-1.8.22.22,0,0,0-.2-.2h0c-.1,0-.2,0-.2.1a10.64,10.64,0,0,0-.9,3.5v.6a8.8,8.8,0,0,0,1.7,3.5l.4.6a21.16,21.16,0,0,1,1.1,2.1,8.8,8.8,0,0,1,.5,1.5,6.91,6.91,0,0,0-3-1.7,7.79,7.79,0,0,0-3.7.3,18,18,0,0,0-3.8,1.6,7.81,7.81,0,0,0-2.7,2.4.19.19,0,0,0,.1.3h.1l1.4.2a18.1,18.1,0,0,1,2.3.3,8.47,8.47,0,0,1,3.4,1.4,10.59,10.59,0,0,1,1.2,1,8.62,8.62,0,0,0,1.8,1.4l-1.3.3-.6.2c-.8.2-1.5.3-2.1.4a13,13,0,0,1-4.4.1h-.1V42h.1a12.43,12.43,0,0,0,4.3-.1c.7-.1,1.5-.3,2.2-.4l.6-.1,1.5-.3H84a2,2,0,0,0,1.1.3l-.1-.1h-.1l-.4.1h-.1l-.1.2-.3.3-.4.3v-.1h-.1l-.7.1,1-.3.1-.1v-.1c0-.1,0-.1-.1-.1h-.1a13.44,13.44,0,0,1-4,.7h-4v.3h.1c1.2,0,2.6.1,3.9,0-1.1.1-2.2.1-3.4.1-.1,0-.2.1-.1.2V43h.2a16.05,16.05,0,0,0,3.1,0,24.52,24.52,0,0,1-2.7.2h-.1v.3h.1a17.91,17.91,0,0,0,4.6-.4h.1v-.2l1.9-.3a13.15,13.15,0,0,0-4.8,6.1,9.77,9.77,0,0,0-.4,4.5h0a.37.37,0,0,1-.3-.1c-.2,0-.5-.1-.7-.1a4.67,4.67,0,0,1-1-.5,4.05,4.05,0,0,0-.9-.5,4.7,4.7,0,0,1-.9-.6h0A4.42,4.42,0,0,0,72.8,48a3,3,0,0,0-1.5-.5H70.1l.2-.2c.1-.2.3-.3.4-.5a5,5,0,0,1,1.2-.8,2.32,2.32,0,0,1,1.8.4l.5.2c.3.1.7.2,1,.3a.6.6,0,0,1,.4.1c.6.1,1.1.3,1.6.4h.2l.1-.1v-.1a.76.76,0,0,0-.2-.5.52.52,0,0,0-.4-.2l-.3-.2a2.49,2.49,0,0,1-.8-1.7l-.1-.6c-.1-.4-.1-.8-.2-1.1a8,8,0,0,0-.8-1.6,4.5,4.5,0,0,0-2.6-2.1,7.57,7.57,0,0,0-1.5-.1h-.2a2.93,2.93,0,0,0-1.6.4,4.44,4.44,0,0,0-1.1.8l-.1.1a5.55,5.55,0,0,1-.8.6l-.4.2a4.53,4.53,0,0,0,.3-1.6c0-.3.1-.7.1-1a6.9,6.9,0,0,0-2.3-5.4l-.4-.3a8.64,8.64,0,0,1-1.4-1.3,6.12,6.12,0,0,1-.5-1.2,3.18,3.18,0,0,1,.2-1.4v-.1c0-.1,0-.1-.1-.1v-.2l-.1.1c-.1,0-.1,0-.2.1a6.83,6.83,0,0,0-1.7,2.8c0,.2-.1.5,0,.7a8.52,8.52,0,0,0,.4,2.3l.1.5a10.62,10.62,0,0,1,.4,1.9v1.1a4.51,4.51,0,0,0-1.7-1.9,6.81,6.81,0,0,0-2.8-.7,8.72,8.72,0,0,0-3.2.3,8.25,8.25,0,0,0-2.6,1,.19.19,0,0,0,0,.3l.1.1c.3.2.7.3,1,.5.5.3,1.1.5,1.6.8a9.09,9.09,0,0,1,2.1,1.8c.2.3.4.7.6,1a5.48,5.48,0,0,0,1.8,2.2H58c-.4-.1-.8-.1-1.2-.2a1.27,1.27,0,0,1-.6-.1,14.16,14.16,0,0,1-2-.4,13.36,13.36,0,0,1-3.9-1.6,26.63,26.63,0,0,1-3.1-2.6,23.72,23.72,0,0,1-2.3-3,2.2,2.2,0,0,0,.8.1,7.51,7.51,0,0,0,2.6-.5c.8-.3,1.6-.5,2.3-.7h.1a7,7,0,0,0,2-.8c.3-.1.5-.3.8-.4a4.19,4.19,0,0,1,1.6-.4.37.37,0,0,1,.3.1s0,.1-.3.3l-.4.3c-.1.1-.2.2-.3.2s-.1.1-.1.2l-.5.3.5-.2h0a.35.35,0,0,0,.2.1c.7-.1,1.8-.7,1.8-1.5h0l-.1-.5a4.87,4.87,0,0,1,.1-1.2,4.87,4.87,0,0,0,.1-1.2,4.4,4.4,0,0,0-1-2.3,4.18,4.18,0,0,0-1.8-1.1,14.19,14.19,0,0,0-2.2-.5h-.1a16.35,16.35,0,0,0-2.2-.2H47.2l.1-.2a.37.37,0,0,0,.1-.3,1.06,1.06,0,0,1,.6-.7,1.27,1.27,0,0,1,.6-.1,1.61,1.61,0,0,0,.9-.3,1.46,1.46,0,0,0,.6-.9l.1-.2c.1-.4.5-.5.9-.4h.1c.3.1.3.5.4.9v.4c.2,1,1.1,1.3,1.9,1.6h.2a.37.37,0,0,0,.1-.3h-.1a1.45,1.45,0,0,1-.6-1.4V22.6a2.2,2.2,0,0,0-.1-.8,2.73,2.73,0,0,0-.9-1.2l-.2-.1a2.84,2.84,0,0,1-.9-1,2.7,2.7,0,0,0-.7-.8,5.66,5.66,0,0,0-4.7-1.2,6.78,6.78,0,0,0-4,2.3,11.11,11.11,0,0,0-2,3.9v-.8a15.44,15.44,0,0,0-.4-3c-.1-.5-.2-1.1-.3-1.6l.1-.1c0-.1.1-.1.2-.1l.1-.1.2-.1.5-.3h.1a12.13,12.13,0,0,0,1.4-1A5.44,5.44,0,0,0,43.1,14c.2-.4.3-.8.5-1.2a4.1,4.1,0,0,1,1.6-1.6,4.18,4.18,0,0,1,1-.4,10.37,10.37,0,0,1,1-.4,7,7,0,0,0,1.7-1.3l.3-.3a7.44,7.44,0,0,1,2.2-1.4c.1,0,.1-.1.1-.2h0l.4-.2-.4.1h-.1a15.26,15.26,0,0,1-3,.3,9,9,0,0,1-2.7-.7l-.5-.2A4.14,4.14,0,0,0,43.3,6a4.55,4.55,0,0,0-1.9.8l-.2.2a3.51,3.51,0,0,1-.8.5c-.3.1-.7.3-1,.4h-.1a5.83,5.83,0,0,0-1.8.8,3.39,3.39,0,0,0-1,2.7v2.4h0a6.15,6.15,0,0,0-2-1.6,9.11,9.11,0,0,0-5.4-1.1.22.22,0,0,0-.2.2h0v.1a1.42,1.42,0,0,1,.2.6,3.55,3.55,0,0,1-.2,1v.1a13.8,13.8,0,0,0-3.6-4A4.92,4.92,0,0,0,24,7.3a22.41,22.41,0,0,1-2.7-3.4L20.1,1.8c-.3-.6-.6-1.1-.9-1.7,0-.1-.1-.1-.2-.1S18.9.1,19,.1Zm5.5,24.4a.1.1,0,0,0-.1-.1l-.1-.1c-.5.1-1.1-.6-1.5-1.1l-.1-.1a12.74,12.74,0,0,1-1.3-1.9A10.15,10.15,0,0,0,19,19c2.9.6,5.2,2.6,7.2,4.4l.1.1h.1c.1,0,.1-.1.1-.2v-.1h0a17,17,0,0,0-5.7-3.9c2.4.6,5,1.6,6,3.8l.1.1.2-.1V23c-1.4-3-5.1-3.8-8-4.4l-.4-.1a23.57,23.57,0,0,1,5.1,1.2,7,7,0,0,1,2.9,1.9,3.94,3.94,0,0,1,1,2.7v.4c-1.1-.1-2.2-.2-3.2-.2Zm14.7-1.2V23a4.25,4.25,0,0,0-.2-1.1l-.2-.8c-.2-.9-.4-1.9-.7-2.9s-.6-1.9-1-2.9a4.82,4.82,0,0,0-1.5-2.2h-.2a.1.1,0,0,0-.1.1v.1h0a4.25,4.25,0,0,1,1.4,2.3,29.92,29.92,0,0,1,1,3.2l.2.9.2.8.1.6c.1.4.2.7.3,1.1a2.25,2.25,0,0,1,.1.7l.1.5v.1a1.14,1.14,0,0,0,.3.8l.1.1v1.1l-.1.4v-.7c0-.1-.1-.1-.2-.1h-.1a2,2,0,0,0-.8-.8.1.1,0,0,0,.1-.1h0A11.91,11.91,0,0,1,37,21l-.1-.3c-.3-1.2-.6-2.5-1-3.6a21.58,21.58,0,0,0-1.7-3.4A5.81,5.81,0,0,0,32,11.5h-.1l-.1.1v.2H32a5.44,5.44,0,0,1,2.2,2.3,14.88,14.88,0,0,1,1.7,3.6c.4,1.2.7,2.4,1,3.6v.1a13.13,13.13,0,0,0,1,3.2h0a.81.81,0,0,0-.9.4,1.07,1.07,0,0,0,.1,1.1V26h0c0,.1.1.1.1.2l.2.2v.8l.3,1.2.1.4.2,1c-.3-.6-.6-1.2-.9-1.7a4.67,4.67,0,0,1-.5-1l-.2-.4-.1-.3v-.1a.85.85,0,0,0,0-.7c0-.1-.1-.2-.1-.3v-.1h.1l-.1-.2c0-.1-.1-.1-.2-.1l-.1-.1a.6.6,0,0,0-.4-.1c-.1,0-.1.1-.2.1s-.1,0-.2.1h0L35,25c-.1,0-.1,0-.2.1a.52.52,0,0,0-.2.4v.2c-.1.1-.2.2-.2.3a.85.85,0,0,0,.3.5.1.1,0,0,0,.1.1H35c0,.1.1.1.2.1s.2.1.4,0h.1a12.9,12.9,0,0,0,.9,1.6,9,9,0,0,1,1.2,2.4,5.54,5.54,0,0,1,.2,1.8v.2l-.1-.2v-.2c-.2-.4-.4-.7-.6-1.1s-.3-.6-.5-.9c-.4-.6-.8-1.3-1.3-2.1l-.5-.5a2.85,2.85,0,0,1-.8-1.4.76.76,0,0,1,.1-.4c.1,0,.1-.1.1-.2h0a.48.48,0,0,0-.2-.6,1,1,0,0,0-.3-.1.55.55,0,0,0-.5-.3.52.52,0,0,0-.4.2.9.9,0,0,0-.5.1.76.76,0,0,0-.2.5l-.1.1c-.1.1-.1.2-.2.3V26c0,.1.1.2.1.3l.1.1v.1c0,.2.1.3.3.4h.1c0,.1.1.1.2.2s.5,0,.8-.3a5.72,5.72,0,0,1,.7.8l.5.8.7,1a12.44,12.44,0,0,1,1,2h0a9.14,9.14,0,0,0,.7,1.4c-.6-.7-1.1-1.4-1.6-2.1l-.3-.4c-.3-.4-.6-.9-.9-1.3h0c.1-.1.2-.4.1-.5a.91.91,0,0,0-.4-.8,1.08,1.08,0,0,0-.8-.2.54.54,0,0,0-.4.3v.1h0a.77.77,0,0,0-.2.3v.4a21.55,21.55,0,0,1-2.4-4.8,18.92,18.92,0,0,1-.5-2.3l-.1-.7c-.2-1-.3-2.1-.4-3.1a10.87,10.87,0,0,1,.1-1.8v-.3l.1-.7c0-.4.1-.8.1-1.2l.1-.5a5,5,0,0,0,.2-1.2,1.27,1.27,0,0,0-.1-.6,8.74,8.74,0,0,1,4.8,1.1,7.14,7.14,0,0,1,3,3.2,17.42,17.42,0,0,1,1.3,4.6,12.65,12.65,0,0,1,.3,2.8,4.87,4.87,0,0,1-.1,1.2A5.13,5.13,0,0,0,39.2,23.3ZM48,17.8A4.64,4.64,0,0,1,50.3,19c.2.2.3.4.5.6l.2.4a3.63,3.63,0,0,0,.9.8l.2.1a2,2,0,0,1,.9.9,1.7,1.7,0,0,1,.1.7v1.2a4.25,4.25,0,0,0,.2,1.1c-.2-.1-.3-.2-.5-.3a2.39,2.39,0,0,1-.5-1.4A1.11,1.11,0,0,0,51.2,22a1.85,1.85,0,0,0-.7.2,3,3,0,0,0-.5.7l-.1.2a2.65,2.65,0,0,1-.5.6,1.27,1.27,0,0,1-.6.1h-.3a1.33,1.33,0,0,0-1,.6c0,.1-.1.2-.1.3-.1.3-.3.7-.5.7s-.1,0-.1.1A8.68,8.68,0,0,0,43,27a9.14,9.14,0,0,0-2.1,2.3,6.5,6.5,0,0,0-1.1,2.2,8,8,0,0,1,.3-1.5,5.56,5.56,0,0,1,.9-1.7v-.1l-.2-.1-.1.1a7,7,0,0,0-1.1,2.3l-.1-.3-.1-.4a15.52,15.52,0,0,1-.4-2.1v-.6a.1.1,0,0,0,.1.1.35.35,0,0,0,.2-.1c.5-2.7,1.2-6.2,3.7-8.2a6.55,6.55,0,0,1,4.9-1.1Zm2.9,8.4a18.46,18.46,0,0,1,2.3.4,4,4,0,0,1,2,1.1,3.84,3.84,0,0,1,1.1,2.5,2.77,2.77,0,0,1-.1.9,2.77,2.77,0,0,0-.1.9v.5a.78.78,0,0,1-.2.8V33c0-.2-.3-.5-1.1-.4a6,6,0,0,0-1.9.6l-.2.1a11.92,11.92,0,0,1-2,.8h-.2l-1.1.3-1.1.3a8.45,8.45,0,0,1-1.7.5,4.62,4.62,0,0,1-2.6-.4l-1-.4a5,5,0,0,0-1.3-.5.82.82,0,0,0-.7-.1h-.4a19.45,19.45,0,0,1,2-.5,14.62,14.62,0,0,0,2-.5h.1v-.2l-.1-.1h.2l2.7-.3,2.7-.3h.1v-.2l-.1-.1h-.1a42.41,42.41,0,0,0-5.4.6,18.48,18.48,0,0,0-4.5,1.1,17.38,17.38,0,0,1,1.9-1l.1-.1v-.1c0-.1,0-.1-.1-.1h-.2a12.29,12.29,0,0,0-2.5,1.4h-.1v.2h-.1v.2l.1.1h0V34l-.3.1-.1.1a1.88,1.88,0,0,1-.8.2H38l-.1-.2c.1,0,.1-.1.2-.2a1.6,1.6,0,0,0,.7-.9l.3-.6a.9.9,0,0,1,.1-.5h.1a.35.35,0,0,0,.2-.1,7,7,0,0,1,1.1-2.3,11.23,11.23,0,0,1,1.8-2,7.94,7.94,0,0,1,5.4-1.7A16.2,16.2,0,0,1,50,26ZM28.6,49.4a3.92,3.92,0,0,0-.8,1,5.55,5.55,0,0,1-.6.8,3.77,3.77,0,0,1-1.5.9,3,3,0,0,0-.8.4c-1.4.8-1.5,2.1-1.6,3.4a10,10,0,0,1-.2,1.6,3,3,0,0,1-.5-.7,8.34,8.34,0,0,1-.8-1.2,6.94,6.94,0,0,1-.8-2.8,6.46,6.46,0,0,1,.5-2.7,10.08,10.08,0,0,1,1.2-2.3l.6-.6.2-.3a8.74,8.74,0,0,0,.8-1l.5-.7c.3-.4.6-.9.9-1.3a7.18,7.18,0,0,1,4.8-2.4,5.38,5.38,0,0,1,3.3.5,11.94,11.94,0,0,1,1.6.8,10.91,10.91,0,0,1,1.1.6h.1l.9,1.5a9.6,9.6,0,0,0-3.3-.6,9.12,9.12,0,0,0-3.3.5.1.1,0,0,0-.1.1v.2a5.78,5.78,0,0,0-1.7.6c-.7.4-1.4.8-2,1.2L27,47v.1l.2.1.2-.1c.6-.4,1.2-.7,1.8-1.1a8.51,8.51,0,0,1,1.7-.6.6.6,0,0,0,.4-.1h.2v-.2h.2c.3-.1.6-.1.9-.2a4.88,4.88,0,0,1,1.7-.1,9.6,9.6,0,0,1,3.3.6h.1l.1-.1h0a1,1,0,0,0,.4.5,5.24,5.24,0,0,0,1,1.1l.2.1c.2.1.3.2.5.3A3.75,3.75,0,0,1,38.3,49a4.13,4.13,0,0,1-1.9.2,17,17,0,0,1-2.2-.4,12.5,12.5,0,0,0-1.9-.3,5.82,5.82,0,0,0-3.7.9Zm10.6-2.6a.76.76,0,0,0-.4-.2,3.13,3.13,0,0,1-.9-1.1l-.1-.2c-.3-.5-.7-1.1-1-1.6s-.6-1.2-.9-1.9a2.51,2.51,0,0,1-.1-1.9.35.35,0,0,1,.1-.2H36a4.36,4.36,0,0,0,1.4-1.3,8.49,8.49,0,0,0,.9-2.2,4.25,4.25,0,0,0,.2-1.1h.1l-.1.1v.1h.1a2.59,2.59,0,0,1,1.1,1.4c.3.7.6,1.3.9,2a11,11,0,0,1,.6,2.6v.4a6.47,6.47,0,0,0,.4,2c0,.1.1.1.2.1a.22.22,0,0,0,.2-.2v-.1a15.72,15.72,0,0,1-.4-2.3v-.5a7.17,7.17,0,0,0-.7-2.5c-.3-.6-.6-1.3-1-2a2.19,2.19,0,0,0-1.2-1.3h.1c.2-.1.5-.1.7-.3l.1-.1a2.61,2.61,0,0,1,1.1-.3,3.4,3.4,0,0,1,1,.1h.1l.1.1.6.6.1.1a9.12,9.12,0,0,1,1.7,2.3,3.26,3.26,0,0,1,.4,1.3,6.15,6.15,0,0,1-.1,1.3,4.25,4.25,0,0,0-.2,1.1h0a3.59,3.59,0,0,0,.2,1.1l.1.3a5.84,5.84,0,0,1,.4,1.8,1.27,1.27,0,0,1-.1.6A4,4,0,0,1,43.8,47l-.3.2a3.57,3.57,0,0,0-1,1.1,1.93,1.93,0,0,0-.3,1,1.61,1.61,0,0,1-.3.9c-.3.6-.9.7-1.7.7H40a2,2,0,0,1-1.1,0,2.36,2.36,0,0,0,.9-.8,1.5,1.5,0,0,0,.4-1.1V48a1.85,1.85,0,0,0-.2-.7,2.18,2.18,0,0,0-.8-.5ZM18.9,40.5c.9-.9,1.5-1.6,2.2-2.3a16.41,16.41,0,0,1,2.4-2.1,6.38,6.38,0,0,1,1.4-.8l.3-.2a3.13,3.13,0,0,1,1-.5h.1a10.87,10.87,0,0,0,1.8-.1l1.6-.1c1.3-.1,2.6-.3,3.9-.3h2.1c.3,0,.5.1.7.1s.2.1.3.1h.1a3.55,3.55,0,0,0,1,.2v1a6.36,6.36,0,0,1-.6,1.8,3.6,3.6,0,0,1-.8,1.2,6.54,6.54,0,0,1-2.3,1.3,17.85,17.85,0,0,1-5.6,1c-1.1.1-2.3.1-3.4.1H22.3a7.17,7.17,0,0,0-2.9.6c-.2.1-.3.2-.5.2a4.71,4.71,0,0,1-1.5.6,6.55,6.55,0,0,1,1.5-1.8Zm5.7-11.3c1.4.5,3,1,4.6,1.6l.5.2,1.8.6c.2.1.4.1.6.2l1.1.3h.2a.19.19,0,0,0,0-.3v-.1a5.64,5.64,0,0,0-1.2-.4c-.2,0-.4-.1-.6-.1l-1.8-.6-.6-.2c-.7-.3-1.5-.5-2.4-.8l-1.2-.4-1.2-.4a15.94,15.94,0,0,0-4.8-.7,23.83,23.83,0,0,0-4.6.4,13.16,13.16,0,0,1,3.8-1.3,18.89,18.89,0,0,1,4.7-.3,24.3,24.3,0,0,1,4.7.8,8.49,8.49,0,0,1,2.2.9c.3.1.6.3.9.4a13.35,13.35,0,0,1,1.2.6h.2a.19.19,0,0,0,0-.3v-.1l-1.2-.6-.8-.4a11.72,11.72,0,0,0-2.4-.9,16.74,16.74,0,0,0-4.9-.8,24.87,24.87,0,0,0-4.7.4,16,16,0,0,0-2.1.5l.5-.2.6-.3a19.68,19.68,0,0,1,6.4-.7,18.59,18.59,0,0,1,3.3.4l1,.3a12.09,12.09,0,0,0,1.8.5h.1l.1-.1v-.1a.35.35,0,0,0-.1-.2,10.93,10.93,0,0,1-1.7-.5c-.4-.1-.8-.3-1.2-.4-1.1,0-2.3-.1-3.4-.1s-2.2,0-3.3.1a5.66,5.66,0,0,0-1.8.3,13.19,13.19,0,0,1,4.4-1.3,15.48,15.48,0,0,1,4.3,0c1.2.2,2.8.5,3.6,1.4l.4.7a21.39,21.39,0,0,0,2.8,3.9l1.8,1.8c.2.2.5.4.7.6,0,.1,0,.1.1.1l.6.3a1.85,1.85,0,0,1-.7-.2h-.1l-.2-.1c-.2,0-.3-.1-.5-.1v-.1c0-.1,0-.1-.1-.2h-.7c-.2,0-.4-.1-.6-.1h-.2a12.44,12.44,0,0,1-1.6-.4l-1.1-.2c-1.3-.2-2.6-.5-4-.8s-2.8-.8-4.2-1.2l-.7-.2L22,30l-1.2-.4a4.13,4.13,0,0,0-1.9-.2h-.1v.2l.1.1H19a4.22,4.22,0,0,1,2.2.3l1.4.4.8.3c2,.6,3.5,1,5,1.4,1.2.3,2.4.5,3.5.7l1.7.3c.3.1.5.1.8.2h.1a33.93,33.93,0,0,0-5.5.4,14,14,0,0,1-5,0,8,8,0,0,1-2.5-1.1c-.8-.5-1.6-1-2.4-1.6l-.8-.6a7.89,7.89,0,0,0-2.9-1.8,21.87,21.87,0,0,1,9.2.6Zm11.9,3.5a11.41,11.41,0,0,1-1.1-1.1,16.38,16.38,0,0,1-2.1-2.5h.1l.2.1h.2a21.1,21.1,0,0,1,1.9,2.3l.1.2a8.65,8.65,0,0,1,.7,1Zm2.4-2.4-.1-.3a13.32,13.32,0,0,1-.5-1.9V28a3.4,3.4,0,0,1-.1-1,.9.9,0,0,1,.1-.5c.1,0,.2-.1.3-.2a.35.35,0,0,0,.1-.2.1.1,0,0,0,.1-.1l-.1.3v.1a4.87,4.87,0,0,0-.1,1.2,8.33,8.33,0,0,0,.3,2.2l.1.5Zm-1.1-3.8c0,.2-.1.3,0,.5v.2a2,2,0,0,1-.1-.8.1.1,0,0,0,.1.1Zm1,5a3.3,3.3,0,0,1,0,1.4l-.2.2v-.5a3.79,3.79,0,0,0,0-1.5c.1.1.1.3.2.4Zm5.8,1.1-1,.2a16,16,0,0,0-2.1.5,15.54,15.54,0,0,1,3.1-.7ZM29.2,13.3h0l-.1.8c-.6-.8-1.3-1.6-1.9-2.3s-1.1-1.2-1.6-1.9l-.1-.1h-.1c-.1,0-.1.1-.1.2h0a31.12,31.12,0,0,0,2.3,2.8l1.2,1.5.1.1v.4l-.1.7a13.4,13.4,0,0,0-.1,2,5.92,5.92,0,0,0-.6-.4,4.35,4.35,0,0,1-.7-.6l-.3-.3c-.8-.6-1.5-1.2-2.2-1.8a21.47,21.47,0,0,1-3.3-4.6l-.2-.3c-1.3-2.2-2.7-4.7-2.7-7.2A9.85,9.85,0,0,1,18.9.6l.6,1.1a25.26,25.26,0,0,0,3.7,5.5c.6.6,1.3,1.2,1.9,1.8a11.28,11.28,0,0,1,4.1,4.3ZM16,35.9c-.3,1.5-2.4,2.5-3.7,3.1h-.1l-.6.3a9.19,9.19,0,0,0-3.1,2l-.6.5a10.71,10.71,0,0,1-2.2,1.5c-.4.2-1.5.8-2,.3l-.2-.2-.3-.3a1.42,1.42,0,0,1-.6-.2l-.2-.1a.6.6,0,0,0-.4-.1,1.85,1.85,0,0,1,.7-.2h.1a3,3,0,0,1,1-.2c.3-.1.7-.2,1-.3l.9-.3.2-.1c.6-.3,1.1-.6,1.6-.8A10.93,10.93,0,0,0,9,40l.5-.3c-.2.1-.3.3-.5.4a.78.78,0,0,0-.4.4,10.63,10.63,0,0,0-1.1.9A12,12,0,0,1,4.8,43H4.7v.2a.1.1,0,0,0,.1.1H5a11.74,11.74,0,0,0,2.7-1.5c.4-.3.8-.6,1.3-1l.2-.2a7.64,7.64,0,0,0,.9-.9v-.1h0c0-.1,0-.1-.1-.1H9.8c.2-.1.3-.3.5-.4l.1-.1v-.1c0-.1,0-.1-.1-.1h-.2l-.5.4c-.3.2-.5.4-.8.6-.6.4-1.2.6-1.6.9l-.1.1a18.61,18.61,0,0,1-2.5,1l-.9.2a10.26,10.26,0,0,0-1.4.4h0a3,3,0,0,0-1,.4A3.63,3.63,0,0,1,2,41.1a10.92,10.92,0,0,1,1.3-1.7l.6-.8c.2-.3.4-.5.6-.8.6-.7,1.2-1.4,1.9-2.1a9.51,9.51,0,0,1,2-1.5,11.22,11.22,0,0,1,4-1c1.8-.1,3,.3,3.5,1.2h0l.1.1h0v.1a3.4,3.4,0,0,1,.1,1v.1Zm.4-1.1,1-.3c.3-.1.9-.3,1.3-.4a11.24,11.24,0,0,1,3.2-.4H22l.1-.1.6.3c-.2,0-.5.1-.7.1-1.1.2-2.2.3-3.3.6a16.55,16.55,0,0,0-2.1.6Zm33.1,9.1a25.49,25.49,0,0,0-3.9.2,7.49,7.49,0,0,0-.4-1.6c-.1-.2-.2-.5-.3-.7a2.92,2.92,0,0,1,.1-1.6c0-.3.1-.5.1-.8.2-1.5-1-3-1.8-3.9-.2-.2-.4-.5-.6-.7h0l.5.2a5.64,5.64,0,0,0,1.2.4,6.71,6.71,0,0,0,.9,1.4l-.4-.3v-.1h-.2v.2h.1l.9.9,1,1c-.2-.2-.5-.4-.7-.6h-.3v.3h0L47.8,40c.7.6,1.6,1.4,2.4,2.1H50a17.55,17.55,0,0,1-3-2.4,15,15,0,0,0-1.3-1.1l-.1-.1h-.1a.1.1,0,0,0-.1.1v.1h0l.7.6a26.94,26.94,0,0,0,3.7,3A19.12,19.12,0,0,0,53,43.9Zm2-6.9.1.1h.1a5.19,5.19,0,0,1,3-.3h.1a4.67,4.67,0,0,1,1.7.3l.9.3.3.1c.2.1.3.1.5.2h0l.1-.1v-.2h-.1a4.42,4.42,0,0,0-1.6-.6h-.1a6.28,6.28,0,0,0-1.9-.3H52.5l.9-.3a14.28,14.28,0,0,1,2.9-.3,8,8,0,0,1,2.6.5,5,5,0,0,1,2,2.3h0l-.1.5c-.1.7-.2,1.3-.3,2a2.77,2.77,0,0,0,.1.9c.1.4.2.7.3,1.1v.1a11.22,11.22,0,0,0,.5,1.3l.1.3-.1-.1a6.42,6.42,0,0,0-1.3-1,4.05,4.05,0,0,0-.9-.5,3.55,3.55,0,0,0-1-.2,3.39,3.39,0,0,1-1.5-1.4,2.51,2.51,0,0,1-.4-.7,9.13,9.13,0,0,0-.8-1.3,9.09,9.09,0,0,0-2.1-1.8,11.94,11.94,0,0,0-1.6-.8l-.5-.1Zm20.7,2.5a3.81,3.81,0,0,1,1.4,1.1,5.61,5.61,0,0,1,1.5,3.2,5.92,5.92,0,0,0,.5,1.9c.1.3.4.5.6.8.1.1.2.1.3.2l.2.1-1.1-.3-.4-.1c-.4-.1-.8-.2-1.1-.3-.1-.1-.3-.1-.4-.2-.3-.1-.6-.3-.9-.4a2,2,0,0,0-1.3.1,3.81,3.81,0,0,0-1.3.9,2.18,2.18,0,0,0-.4.5,1.34,1.34,0,0,1-.7.6.64.64,0,0,1-.6,0h-.7c-.1,0-.1,0-.2.1l-.3-.6h.2c.2,0,.3-.2.2-.5a.75.75,0,0,0,0-.9.55.55,0,0,0-.5-.3,1,1,0,0,0-.7.4.78.78,0,0,1-.8.2H63.2c.2-.3.5-.5.7-.8l.5-.5a5.07,5.07,0,0,0,.9-1.6,5.78,5.78,0,0,0,.5-1.4h0a3,3,0,0,1,.7-.5l.1-.1c.3-.2.5-.4.8-.6h0a4.7,4.7,0,0,1,1.2-.9,4.53,4.53,0,0,1,1.6-.3A5.86,5.86,0,0,1,72.2,39.5Zm-1.6,8.1H71a2.45,2.45,0,0,1,1.6.6,3.51,3.51,0,0,1,1.3,3v.2a4,4,0,0,1-.3,1.5l-.1.3c-.1.4-.2.9-.3,1.3a2,2,0,0,0,.1.8v.2a1.42,1.42,0,0,0,.2.6c0,.1.1.2.2.3h-.3v-.2h0A6.53,6.53,0,0,1,72,53.3c-.2-.6-.4-1.1-.6-1.7A10,10,0,0,0,70,50a2.88,2.88,0,0,0-2-.9h-.1v.2H68a3.52,3.52,0,0,1,1.9,1,5.94,5.94,0,0,1,1.3,1.8,7.84,7.84,0,0,1,.5,1.4,6.53,6.53,0,0,0,1.4,2.9,2,2,0,0,0-.7.1c-.2.1-.4.1-.6.2l-.9.3a1.49,1.49,0,0,1-.9-.4,2.19,2.19,0,0,0-.5-.3,1.41,1.41,0,0,0-.9-.1.78.78,0,0,1-.8-.2h0a18.92,18.92,0,0,0-.5-2.3,13.44,13.44,0,0,0-1.2-2.4,10.47,10.47,0,0,0-.8-1.1c.1,0,.1,0,.2.1a.3.3,0,0,0,.4,0,.71.71,0,0,0,.3-.6c.1,0,.2,0,.2-.1h0a1.76,1.76,0,0,0,.5-.4.38.38,0,0,0,.1-.6c.3,0,.5-.3.6-.6.1,0,.1-.1.2-.1a1.27,1.27,0,0,1,.6-.1,1.09,1.09,0,0,0,1-.2h.1a2,2,0,0,0,1.1,0Zm-11,15.9h-.1a2,2,0,0,0-.7.1h-.1a4.07,4.07,0,0,1,1.4-1.2l.3-.2a4.26,4.26,0,0,0,1.2-1.1,1.69,1.69,0,0,0,.1-1.4l-.3-.6c-.1-.2-.2-.3-.2-.5a2.05,2.05,0,0,1,0-1.1c.1-.3.1-.5.3-.7a2,2,0,0,0,.3-1.1v-.3c-.1-.2-.2-.5-.3-.7s-.2-.3-.2-.5a.85.85,0,0,1,0-.7v-.4a1.27,1.27,0,0,1,.1-.6h0v-.3a3.51,3.51,0,0,0,.6-1.4l.1-.5v-.1a8.47,8.47,0,0,0,.4-1.7v-.3a1.38,1.38,0,0,0,.4.3,2.7,2.7,0,0,1,.7.8v.1h-.2l.1.1c-.1,0-.1.1-.2.2v.2a.55.55,0,0,0,.3.5.74.74,0,0,0,.9.1.37.37,0,0,0,.2-.5h0l.3.1-.2-.2v-.1c0-.1,0-.1-.1-.1l-.1-.1-.1-.1.1-.1.1.1v.1c.1.2.2.3.4.3a14.29,14.29,0,0,1,1.4,2,8.59,8.59,0,0,1,1.2,3,6.89,6.89,0,0,1-.1,3.2,6.38,6.38,0,0,1-.8,1.4,2.59,2.59,0,0,1-1.1.7l-.3.2a4.26,4.26,0,0,0-1.2,1.1,5.24,5.24,0,0,1-1,1.1,2.11,2.11,0,0,1-1.3.5H61c-.7.2-1,.3-1.4.4ZM59.4,58l-1,1a8.53,8.53,0,0,1-3,1.9c-.3.1-.5.1-.8.2,1-.7,2-1.6,3-2.4l.1-.1c1-.9,2-1.8,3-2.8v-.1h0c0-.1,0-.1-.1-.1h-.1l-.1.1c-.9.9-1.9,1.8-3,2.8a17.38,17.38,0,0,0-1.5,1.3,18.26,18.26,0,0,1-1.6,1.3V61h0c0,.1,0,.1.1.1-.2,0-.4.1-.6.1a9.77,9.77,0,0,0-2.3.6,7,7,0,0,0-1.7,1.3l.2-.4.5-.8h.2a13.14,13.14,0,0,0,3-4l.4-.7A10.77,10.77,0,0,1,58,52.9l.1-.1v-.2l-.1-.1h-.1A11,11,0,0,0,54,56.6l-.4.6-.5.8.1-.2a6.12,6.12,0,0,0,.5-1.2l.2-.5a7.06,7.06,0,0,1,3.7-4l.3.2.1.1a2.6,2.6,0,0,0,1.5.4,6.47,6.47,0,0,0,1.3-.4v.2l-.1.6a2,2,0,0,0,.1,1.1l.2.4a1.28,1.28,0,0,1,.2,1.2l-.2.5h-.1A12,12,0,0,1,59.4,58Zm-8.6,3.3c.1-.2.2-.3.3-.5s.5-.6.7-.9.4-.5.6-.7l.2-.2a10.18,10.18,0,0,1-1.8,2.3Zm1.6-9c-.1-.1-.3-.1-.4-.2-.4-.1-.7.3-.8.6a3.59,3.59,0,0,0-.2,1.1V54a1.61,1.61,0,0,0,.3.9l.1.4a3.11,3.11,0,0,1-.7-.9,5.68,5.68,0,0,1-.6-2.8,6.67,6.67,0,0,1,1.2-3.9A9.71,9.71,0,0,1,57,44.1a4.41,4.41,0,0,1,3,.2,7.55,7.55,0,0,1,1.4,1.1l.2.2c.1.1.2.3.3.4h0a1.28,1.28,0,0,0-.7.5h0l-.1.1h0v.1l-.4-.1.3.2h0l.2.1a.84.84,0,0,0,.2.7l.1.2a1.27,1.27,0,0,1,.4.9v.1a3.53,3.53,0,0,1-.3,1.4l-.1.2-.1.5a6.12,6.12,0,0,1-.5,1.2,1.61,1.61,0,0,1-.7.4h0a3.09,3.09,0,0,1-.8.2,2.2,2.2,0,0,1-.8-.1c-.1-.1-.3-.1-.4-.2-.1-.3-.2-.4-.3-.4a1.08,1.08,0,0,0-1.1,0h-.3a1.38,1.38,0,0,1-1.1-.1c-.1,0-.3-.1-.4-.1a1.74,1.74,0,0,0-1.4.3,1,1,0,0,1-.7.2Zm13.7-3h.4c-.2.1-.3.2-.4,0h0Zm-.5-1.6h.6v.2c-.2-.1-.3-.1-.4-.2-.6-.2-1.3-.4-1.9-.6h.3a2.54,2.54,0,0,1,.7.2c.3.1.5.1.8.2Zm-.2,1.2V49h-.3l-.6-.3-.4-.3c-.2-.1-.5-.3-.7-.4l-.2-.1-.4-.2h.1a10.93,10.93,0,0,0,1.7.5l.3.2c.2.1.3.2.5.3Zm.1,1-.1-.1h0a.35.35,0,0,0,.1-.2v-.1h0l.1.1.1.1c0,.1,0,.2-.2.2v0Zm1.1-1.7h0l.3.1-.1-.1H67l.1-.1a.22.22,0,0,0,.2-.2V48h0c-.1,0-.1.1-.2.2v.1h0v.1a1.06,1.06,0,0,1-.5-.2Zm-.7-1.3-1.4-.3h2.2v.1h0v.1h-.4a.9.9,0,0,1-.5-.1ZM64,49.6a.1.1,0,0,1-.1-.1l-.4-.5-.2-.2h0l.4.3v.1c.2.1.3.3.5.4Zm-.3-4.5a6.47,6.47,0,0,0-.8.9c-.1,0-.2.1-.3.1s-.2-.3-.3-.4h0a5.36,5.36,0,0,1-.5-1.1l-.1-.2a17.23,17.23,0,0,1-.7-2.1c0-.2-.1-.5-.1-.8a12.25,12.25,0,0,1,.2-1.9h0l.1-.3h0V39h0v-.1h0a4.85,4.85,0,0,0,0-1.7,11.63,11.63,0,0,0-.4-1.8l-.1-.5a8.52,8.52,0,0,1-.4-2.3V32a5.29,5.29,0,0,1,1.1-2.1,2,2,0,0,0,0,1.1,2.85,2.85,0,0,0,.8,1.4,5.24,5.24,0,0,0,1.1,1l.1.1a8,8,0,0,1,1.3,1.3,7.21,7.21,0,0,1,1.2,4,10.47,10.47,0,0,1-.5,3,24.43,24.43,0,0,1-1,2.4,3,3,0,0,1-.8.8Zm-7.2-1.4a.75.75,0,0,1,.5.1,22.5,22.5,0,0,0-2.4.8.1.1,0,0,0-.1-.1,16.32,16.32,0,0,0-1.9-.9l-.2-.1a14.37,14.37,0,0,1-2.5-1.8,13.83,13.83,0,0,0,3.8,2h.1l.1-.1v-.2h-.1a10.09,10.09,0,0,1-1.5-.7,6.47,6.47,0,0,0,1.3.4,15.52,15.52,0,0,0,2.1.4c.3.1.5.1.8.2ZM2.2,24.4l.5-.3v.1l.1.1A1.27,1.27,0,0,0,2.2,24.4ZM74.3,36v.1l.2.1.1-.1a7.49,7.49,0,0,1,3.5-1.6h.1a17,17,0,0,1,2.2-.4h2.4v-.3h-.1a8.1,8.1,0,0,0-2.2,0h-.1a21.66,21.66,0,0,0-2.5.4,15.87,15.87,0,0,0-2,.7,3.13,3.13,0,0,0-1,.5,7.84,7.84,0,0,1,1.5-1,15.76,15.76,0,0,1,3.5-1.6,7.78,7.78,0,0,1,3.4-.4,6.49,6.49,0,0,1,3.5,2v.1l.1.7a10.68,10.68,0,0,0,1,3.6,8.34,8.34,0,0,0,.8,1.2l.1.1c.4.5.8,1,1.1,1.4.2.2.3.4.5.6l-.4-.3a6.79,6.79,0,0,0-2-.7,2.74,2.74,0,0,0-1.3-.2h0a3,3,0,0,0-1.3.2A4.42,4.42,0,0,1,83,40c-.3-.2-.6-.5-.9-.7l-1.5-1.2a9.5,9.5,0,0,0-3.3-1.3L75,36.5c-.3,0-.7-.1-1-.1Zm10.6-6.7A8.67,8.67,0,0,1,83.2,26c0-.2-.1-.4-.1-.7a6.16,6.16,0,0,1,.6-2.6,8.8,8.8,0,0,0,.5,1.5,4,4,0,0,0,1.5,1.4,8.65,8.65,0,0,0,1.7.7l.2.1a8.11,8.11,0,0,1,2.1,1,10.71,10.71,0,0,1,3.9,8.4,20.41,20.41,0,0,1-.3,3.4,4.42,4.42,0,0,1-.6,1.6l-.6,1.5-.3.3a2.09,2.09,0,0,1-.6-.4l.1-.2a6.28,6.28,0,0,1-1.1-1.2l-.2-.2a20.28,20.28,0,0,1-1.8-2.3,9.5,9.5,0,0,1-.9-3.4l-.1-.6h0v-.1h0v-.5a8.64,8.64,0,0,0-.7-2.1c-.4-.7-.8-1.4-1.2-2Zm20.9,8.4a.75.75,0,0,1-.5-.1,4.87,4.87,0,0,0-1.2-.1,2,2,0,0,0-1.5.6,5.74,5.74,0,0,0-1.5,2.3,2.38,2.38,0,0,1-.6,1.1.91.91,0,0,1-.7.3h0a1.91,1.91,0,0,0-.8.3.22.22,0,0,0-.2.2,2.34,2.34,0,0,0-.7-.7h-.2a.75.75,0,0,0,.5-.1.37.37,0,0,0,.1-.3c0-.1-.1-.3-.1-.4a.37.37,0,0,0,.1-.3,1,1,0,0,0-.5-.8.88.88,0,0,0-.7-.1c-.4.1-.5.5-.6.7a2,2,0,0,1-.9.7l-.1.1c-.3.1-.5.2-.8.3a3.33,3.33,0,0,0-.6.3c-.2.1-.5.2-.7.3s-.5.1-.7.2h-.1a6.94,6.94,0,0,1,.5-1.3c.1-.3.3-.5.4-.8a8.56,8.56,0,0,0,.5-2.3,10.87,10.87,0,0,0,.1-1.8v-.1h0a3.59,3.59,0,0,1,.7-1v-.1a6.73,6.73,0,0,0,.7-1.1A6.57,6.57,0,0,1,96.9,32a6.47,6.47,0,0,1,4-1.5,4.19,4.19,0,0,1,2.2.8,14.29,14.29,0,0,1,2,1.4,7.61,7.61,0,0,1,1.2,1.9,8,8,0,0,0,1.5,2.1,2.07,2.07,0,0,0,1,.6c.1,0,.3.1.4.1s.3.1.5.1c-.5,0-1.1.1-1.7.1l-.5.1a7.57,7.57,0,0,1-1.5-.1Zm3.5,12.8a10.71,10.71,0,0,1-3-3l-1.5-1.8a7,7,0,0,0-2.3-1.5,4.54,4.54,0,0,0-2.8-.3.1.1,0,0,0-.1.1v.1l.1.1h.1a4.2,4.2,0,0,1,2.7.4,6.34,6.34,0,0,1,2.3,1.6l1.2,1.5a10.71,10.71,0,0,0,3,3,3.55,3.55,0,0,0-.9.4c-.2.2-.4.3-.6.5a3.59,3.59,0,0,1-1,.7,2,2,0,0,1-1.3-.1,1.45,1.45,0,0,0-.7-.2,2.15,2.15,0,0,0-1.1.2,1.39,1.39,0,0,1-1.1.2h0a14,14,0,0,0-1.6-2.6,14.21,14.21,0,0,0-2.5-2.4,9.06,9.06,0,0,0-1.6-1.1H97c.1.1.3,0,.4-.1a.76.76,0,0,0,.2-.5.6.6,0,0,0-.1-.4c.1,0,.2-.1.3-.2h0a2.09,2.09,0,0,0,.4-.6c.1-.1.1-.2.1-.4s-.1-.3-.2-.5a.8.8,0,0,0,.5-.9v-.1l.2-.2h0a2,2,0,0,1,.8-.4,1.23,1.23,0,0,0,1.1-.7l.1-.1a5.64,5.64,0,0,0,1.2-.4l.4-.2a3.33,3.33,0,0,1,2.2.1,4.94,4.94,0,0,1,3,3.3,11.63,11.63,0,0,1,.4,1.8v.4a5.55,5.55,0,0,0,.7,2.8l.1.2a1.79,1.79,0,0,0,.5.7,2.18,2.18,0,0,0,.5.4h-.1a.75.75,0,0,0-.5.1c.2.3.2.2.1.1Zm-14,14.8c-.3.1-.5.3-.8.4l-.3.1v-.1h0a8.17,8.17,0,0,1,1.2-2l.2-.3a4.35,4.35,0,0,0,1-1.9,2.54,2.54,0,0,0-.4-1.7,3.39,3.39,0,0,0-.6-.6,1.21,1.21,0,0,1-.5-.5,2.35,2.35,0,0,1-.5-1.3V55.7a2,2,0,0,0-.3-1.1,2.34,2.34,0,0,0-.7-.7l-.5-.5a1.61,1.61,0,0,1-.3-.9l-.1-.3c-.1-.3-.1-.5-.2-.8h0a.76.76,0,0,0-.2-.4,1.72,1.72,0,0,0,.2-1.2V48a7.11,7.11,0,0,0-.3-2.1c0-.1-.1-.2-.2-.3.2.1.5.2.7.3a2.73,2.73,0,0,1,1.2.6v.1h0l-.1.1h.1c.2,0,.1.1.1.3h0c0,.3.4.5.5.6a.91.91,0,0,0,1.1-.2.85.85,0,0,0,0-.7v-.1h.1l-.1-.1c0-.1-.1-.1-.1-.2h-.2c-.1-.1-.2-.1-.4-.2l-.2-.1-.6-.3-.3-.2-.3-.2.9.3c0,.1,0,.1.1.1a4.67,4.67,0,0,1,1,.5c0,.1.1.1.1.2.2.2.4.3.6.2a23.48,23.48,0,0,1,2.5,1.9,12.89,12.89,0,0,1,2.8,3.3,8.9,8.9,0,0,1,1.2,3.9v.1a4.92,4.92,0,0,1-.4,2.1,7.1,7.1,0,0,1-1,1.4l-.3.4a4.35,4.35,0,0,0-1,1.9,14.17,14.17,0,0,1-.8,1.8,3.33,3.33,0,0,1-1.4,1.2c-.2.1-.5.2-.7.3s-.2.1-.3.1a5.36,5.36,0,0,0-1.1.5ZM86.9,53.2v-.1c.1-.1.2-.1.4-.2l.2-.2a2.09,2.09,0,0,1,.6-.4,1.48,1.48,0,0,1,.7.1H89a2.54,2.54,0,0,0,1.9-.2,4.86,4.86,0,0,0,1.4-1.1l.1.3h0l.2.6v.1a2.62,2.62,0,0,0,.6,1.3c.1.2.3.3.4.4a1.6,1.6,0,0,1,.8,1.4h0v1.7l-.1.1a1.06,1.06,0,0,0-.1.8,2.44,2.44,0,0,1,0,1.2c-.2.4-.4.9-.6,1.3-.1.2-.3.5-.4.7a9.17,9.17,0,0,0-.9,2.3A21.76,21.76,0,0,1,91.2,66a15.58,15.58,0,0,1-1.6,2c-.3.3-.6.5-.9.8s-.7.6-1,.9a11.51,11.51,0,0,0-1.4,1.7l-.2.2-.6.8-.5.7a2.2,2.2,0,0,0-.1-.8v-.1l-.3-1.5a5.85,5.85,0,0,1-.2-1.3,11.29,11.29,0,0,1,0-2.6,10.15,10.15,0,0,1,.6-2.5c.1-.3.2-.5.3-.8a7.49,7.49,0,0,0,.5-1.6v-.5a7.72,7.72,0,0,0-.2-1.5,9.86,9.86,0,0,1-.3-2.4,8.37,8.37,0,0,1,1.6-4.3Zm10.9-12h-.2a.19.19,0,0,0,0-.3h.1l.1.3Zm-4.4,2.2h0a6.37,6.37,0,0,1,.7-.2h2l.5-.1h.1a.76.76,0,0,0,.2.4h-.6a9.42,9.42,0,0,0-2.9-.1Zm4.1,0c-.1,0-.1-.1-.2-.1h.3l.2.1-.1-.1c.1,0,.2-.1.3-.1s.1-.1.1-.2a.76.76,0,0,0,.2-.4h0c0,.1.1.2.1.3h0a.37.37,0,0,0-.1.3h0v.2Zm-1.6,2.5a.44.44,0,0,0,.5.1h-.2l-.3-.1a.31.31,0,0,1-.1-.2c.1.1.1.1.1.2Zm1,0a.1.1,0,0,1-.1-.1v-.1c.1-.1,0-.2-.1-.3l-.1-.1H97a.1.1,0,0,1,.1.1.3.3,0,0,1,0,.4c0,.1-.1.1-.2.1Zm.3-.9h0c0-.1.1-.1.2-.1h.3a.1.1,0,0,0,.1-.1c.1-.1.2-.1.3-.2h0v.1l-.1.1a.66.66,0,0,1-.5.4c-.1-.1-.2-.2-.3-.2Zm-1.6-.7c.3.1.5.1.8.2h0c0,.1.1.3.1.4h0a.6.6,0,0,0-.4.1h0c-.3,0-.6-.1-.9-.1l-.5-.1a4.25,4.25,0,0,0-1.1-.2h-.2a3.55,3.55,0,0,1-1-.2h.3c.8,0,1.6-.1,2.5-.1a.3.3,0,0,1,.4,0Zm1.3-2.5a1.42,1.42,0,0,1-.6.2,18.46,18.46,0,0,0-2.3.4l.1-.1.8-.3a10.41,10.41,0,0,0,1.2-.5l-.1.2.1-.1a2.35,2.35,0,0,1,.8-.2H97l.1.1.1.1.1.1h-.2a.31.31,0,0,0-.2.1ZM88,41.3a5.28,5.28,0,0,1,2.2.8l.3.2c.2.1.3.2.5.3h.1a1.27,1.27,0,0,0-.7.9h0v.4h-.2l.3.1h0a1.37,1.37,0,0,0,.5.8l.3.2a2,2,0,0,1,.9.9,3.21,3.21,0,0,1,.2,1.7v1.9a3.4,3.4,0,0,1-.1,1,2.7,2.7,0,0,1-.7.8h0a8.79,8.79,0,0,1-1,.6,1.73,1.73,0,0,1-1,.1,4.33,4.33,0,0,1-.5-.1.6.6,0,0,0-.4-.1,2.39,2.39,0,0,0-1.4.5l-.3.2a2.41,2.41,0,0,1-1.5.4H85a2.6,2.6,0,0,0-1.6.9,1.28,1.28,0,0,1-1.4.6.45.45,0,0,0-.5,0,1,1,0,0,0-.7,1.1v.1a4,4,0,0,0,.3,1.5,3.59,3.59,0,0,0,.7,1c.1.2.3.3.4.5a3.81,3.81,0,0,1-1.3-.9,9,9,0,0,1-2.2-8.6,13,13,0,0,1,5.5-6.9,5.69,5.69,0,0,1,3.8-.9Zm-10,12h.2l.1.5c-.6-.3-1.2-.5-1.7-.8a3.19,3.19,0,0,0,1.4.3Zm-40.9-40V11.2h0A3.42,3.42,0,0,1,37.6,9a4.53,4.53,0,0,1,1.9-1.1h0a10.84,10.84,0,0,0,1.9-.8l.4-.3a5.56,5.56,0,0,1,1.7-.9,3.51,3.51,0,0,1,2,.5l.5.4a6.47,6.47,0,0,0,1.3.4,6.8,6.8,0,0,1-2-.2,6.73,6.73,0,0,0-2-.1,4.59,4.59,0,0,0-1.6.7l-.1.1a13.36,13.36,0,0,1-1.8.7,2.43,2.43,0,0,0-1.7,1.4,12.85,12.85,0,0,0-.7,3.4l-.1.8a.1.1,0,0,0,.1.1h.2V14c0-.3.1-.7.1-1l.1-1.1a13.32,13.32,0,0,1,.5-1.9,1.6,1.6,0,0,1,.7-.9,1.78,1.78,0,0,1,1-.4h0A8.65,8.65,0,0,0,41.7,8a6.7,6.7,0,0,1,1.8-.7,6.08,6.08,0,0,1,1.9.1,4.52,4.52,0,0,0,2,.1c.1,0,.1-.1.1-.2V7.2a3.4,3.4,0,0,0,1,.1,12.1,12.1,0,0,0,1.9-.1,4.44,4.44,0,0,0-1.1.8l-.5.4a6.57,6.57,0,0,1-1.7,1.2,4.18,4.18,0,0,1-1,.4l-1,.4a3.74,3.74,0,0,0-1.5,1.3,7.57,7.57,0,0,0-.9,1.8,6.11,6.11,0,0,1-1.3,2.2,6.57,6.57,0,0,1-1.7,1.2c-.3.2-.7.4-1,.6-.1-.4-.3-.9-.4-1.3h0a8,8,0,0,0,1.3-2.4,7.64,7.64,0,0,1,1.5-2.6A7,7,0,0,1,43,9.7a6.12,6.12,0,0,1,1.2-.5c.4-.1.8-.3,1.1-.4a.19.19,0,0,0,0-.3h-.2A12,12,0,0,0,40.9,11a8.67,8.67,0,0,0-1.4,2.7,13.44,13.44,0,0,1-1.2,2.4c-.1-.3-.3-.6-.4-.9H38v-.1c.1-.5.2-1.1.3-1.6s.1-.7.2-1A4.72,4.72,0,0,1,39.6,10V9.7l-.2-.1-.1.1a4.42,4.42,0,0,0-1.1,2.4c-.1.5-.2,1-.3,1.4s-.1.9-.2,1.3a8.34,8.34,0,0,0-.8-1.2h.3Z" transform="translate(-0.03 0)"/><path class="cls-1" d="M71.9,42.8a.1.1,0,0,0,.1.1h0a2,2,0,0,1,1.6.7v.1a1.89,1.89,0,0,0,.4.6h.2V44h0l-.2-.3v-.1a2.18,2.18,0,0,0-.4-.5,2.28,2.28,0,0,0-1.6-.4h-.1Z" transform="translate(-0.03 0)"/><path class="cls-1" d="M70,55.3h0l.2-.1v-.1l-.2-.2a6.47,6.47,0,0,1-.8-.9l-.6-.9-.2-.3a5.2,5.2,0,0,0-1.9-2h-.1l-.1.1V51h.1a6.39,6.39,0,0,1,1.9,2.1l.1.1c.2.3.4.7.6,1A3.57,3.57,0,0,0,70,55.3Z" transform="translate(-0.03 0)"/><path class="cls-1" d="M67.6,50.5l-.6-.3h-.1l-.1.1v.1h.1a4.05,4.05,0,0,0,.9.5c.3.1.5.3.8.4A9.27,9.27,0,0,1,70,52.7l.5.8a6.84,6.84,0,0,0,1.7,2.1h.1l.2-.1v-.2h0a8.34,8.34,0,0,1-1.6-2.1l-.6-.9a6.2,6.2,0,0,0-1.4-1.4c-.3-.2-.5-.3-.8-.5C67.8,50.6,67.7,50.6,67.6,50.5Z" transform="translate(-0.03 0)"/><path class="cls-1" d="M61.3,49.9l.1-.1h0c0-.1,0-.1-.1-.1h-.1l-.1.2a2.81,2.81,0,0,1-1,1.4l-.1.1v.1h.3A2.47,2.47,0,0,0,61.3,49.9Z" transform="translate(-0.03 0)"/><path class="cls-1" d="M41.3,13.8l-.3.4a18.82,18.82,0,0,1-1.6,2.3v.2l.2.1.1-.1a13.09,13.09,0,0,0,1.7-2.4l.1-.1a11,11,0,0,1,1.9-2.5h0c0-.1,0-.1-.1-.1h-.2A7.87,7.87,0,0,0,41.3,13.8Z" transform="translate(-0.03 0)"/><path class="cls-1" d="M54.5,49.7a11,11,0,0,1,2.6-.6h.1v-.2H57a11,11,0,0,0-2.6.6A5.13,5.13,0,0,0,52.1,51h0c0,.1,0,.1.1.2s.1,0,.2-.1A6,6,0,0,1,54.5,49.7Z" transform="translate(-0.03 0)"/><path class="cls-1" d="M60.5,49.6l.1-.4a1.37,1.37,0,0,1,.5-.8h.1v-.2l-.2-.1h-.1a1.46,1.46,0,0,0-.6.9h0c-.1.2-.1.3-.2.5s-.3.3-.4.5a3.14,3.14,0,0,1-2.1.7,4.87,4.87,0,0,1-1.2-.1H55.3a.55.55,0,0,0-.5.2h0c0,.1,0,.1.1.2h.7a1.7,1.7,0,0,1,.7.1h.2a7.57,7.57,0,0,0,1.5.1,4.06,4.06,0,0,0,1.9-.8A5.55,5.55,0,0,0,60.5,49.6Z" transform="translate(-0.03 0)"/><path class="cls-1" d="M91.5,47.8a3.94,3.94,0,0,1-.6,2.1V50a.22.22,0,0,0,.2.2h.1a3.22,3.22,0,0,0,.6-2.3v-.2a.35.35,0,0,0-.1-.2h-.2Z" transform="translate(-0.03 0)"/><path class="cls-1" d="M81.9,45.5h0c0,.1,0,.2.1.2h.1l.1-.1A10.4,10.4,0,0,1,85.8,43a6.34,6.34,0,0,1,4.5-.2h0l.1-.1v-.2h-.1C87,41.5,83.7,43.3,81.9,45.5Z" transform="translate(-0.03 0)"/><path class="cls-1" d="M87.8,46.2h0c0,.1,0,.1.1.1H88l.2-.1A2.89,2.89,0,0,1,89.7,45h.1v-.2l-.1-.1h0A2.85,2.85,0,0,0,87.8,46.2Z" transform="translate(-0.03 0)"/><path class="cls-1" d="M55.2,56.7a10.59,10.59,0,0,1,1-1.2,6.84,6.84,0,0,1,2.1-1.7h.1v-.2l-.1-.1h-.1a7.83,7.83,0,0,0-2,1.6,10.62,10.62,0,0,0-1.6,2.1h0v.2h.2l.1-.1C54.8,57.1,55,56.9,55.2,56.7Z" transform="translate(-0.03 0)"/><path class="cls-1" d="M51.5,50.8a5,5,0,0,1,.8-2,5.09,5.09,0,0,1,1.6-1.3,9.78,9.78,0,0,1,4.1-.9h.1v-.3l-.1-.1h-.1a9.76,9.76,0,0,0-4.4,1,4.67,4.67,0,0,0-2.4,3.5c0,.1.1.1.2.1h0c.1.1.1,0,.2,0Z" transform="translate(-0.03 0)"/><path class="cls-1" d="M60.8,56.4h0c0-.1,0-.2-.1-.2h-.1l-.1.1L59,57.8c-.2.2-.3.4-.5.5a16.8,16.8,0,0,1-2.1,1.8h-.1v.2l.1.1h.1a9.09,9.09,0,0,0,2.1-1.8l.7-.7,1.4-1.4Z" transform="translate(-0.03 0)"/><path class="cls-1" d="M44.6,10.3v.1c0,.1,0,.1.1.1h.1l.1-.1a10,10,0,0,1,2.4-1.6l1.2-.6.1-.1v.1c0-.1,0-.1-.1-.1h-.1l-.5.2A9.44,9.44,0,0,0,44.6,10.3Z" transform="translate(-0.03 0)"/><path class="cls-1" d="M58.7,47.8h0l.2.2.1-.1a2.39,2.39,0,0,1,1.4-.5h.1l.1-.1v-.2h-.1a2.72,2.72,0,0,0-1.7.6A.1.1,0,0,0,58.7,47.8Z" transform="translate(-0.03 0)"/><path class="cls-1" d="M58,45a5,5,0,0,1,3.3,1h.1l.1-.1v-.2h0c-2-1.6-4.9-1.1-6.9,0l-.1.1v.1c0,.1,0,.1.1.1h.1A8.36,8.36,0,0,1,58,45Z" transform="translate(-0.03 0)"/></g></svg>