<svg id="OBJECTS" xmlns="http://www.w3.org/2000/svg" viewBox="0 0 129.05 133.09"><defs><style>.cls-1{font-size:4.97px;font-family:Metropolis-Regular, Metropolis Regular;}.cls-1,.cls-3{fill:#474747;}.cls-2,.cls-4{fill:#6e1a1a;}.cls-4{font-size:52.74px;font-family:Satisfy-Regular, Satisfy Regular;}</style></defs><title>award2</title><text class="cls-1" transform="matrix(0.24, 0.97, -0.97, 0.24, 10.51, 81.51)">E</text><text class="cls-1" transform="translate(12.05 86.97) rotate(69.96)">V</text><text class="cls-1" transform="translate(14.22 92.4) rotate(64.89)">I</text><text class="cls-1" transform="translate(16.1 96.18) rotate(60.05)">E</text><text class="cls-1" transform="translate(18.97 100.85) rotate(55.27)"> </text><text class="cls-1" transform="translate(21.39 104.17) rotate(50.28)">C</text><text class="cls-1" transform="translate(25.39 108.72) rotate(44.33)">R</text><text class="cls-1" transform="matrix(0.79, 0.62, -0.62, 0.79, 29.71, 112.72)">A</text><text class="cls-1" transform="matrix(0.85, 0.52, -0.52, 0.85, 34.54, 116.35)">W</text><text class="cls-1" transform="translate(40.99 120.04) rotate(25.04)">F</text><text class="cls-1" transform="translate(46.15 122.29) rotate(18.85)">O</text><text class="cls-1" transform="matrix(0.98, 0.22, -0.22, 0.98, 52.49, 124.25)">R</text><text class="cls-1" transform="translate(58.2 125.35) rotate(7.14)">D</text><text class="cls-1" transform="translate(64.6 125.9) rotate(1.25)"> </text><text class="cls-1" transform="translate(68.63 125.89) rotate(-3.01)">-</text><text class="cls-1" transform="matrix(0.99, -0.13, 0.13, 0.99, 73.13, 125.53)"> </text><text class="cls-1" transform="matrix(0.97, -0.22, 0.22, 0.97, 77.1, 124.95)">W</text><text class="cls-1" transform="translate(84.29 123.06) rotate(-19.56)">E</text><text class="cls-1" transform="translate(89.56 121.03) rotate(-25.65)">D</text><text class="cls-1" transform="matrix(0.85, -0.53, 0.53, 0.85, 95.39, 118.02)">D</text><text class="cls-1" transform="matrix(0.79, -0.61, 0.61, 0.79, 100.7, 114.45)">I</text><text class="cls-1" transform="translate(104.05 111.75) rotate(-42.84)">N</text><text class="cls-1" transform="translate(108.68 107.22) rotate(-49.27)">G</text><text class="cls-1" transform="matrix(0.58, -0.81, 0.81, 0.58, 112.64, 102.33)"> </text><text class="cls-1" transform="translate(114.95 98.91) rotate(-59.44)">P</text><text class="cls-1" transform="translate(117.79 93.81) rotate(-65.62)">H</text><text class="cls-1" transform="translate(120.3 87.81) rotate(-72.27)">O</text><text class="cls-1" transform="translate(122.1 81.59) rotate(-78.28)">T</text><text class="cls-1" transform="matrix(0.09, -1, 1, 0.09, 123.11, 76.12)">O</text><text class="cls-1" transform="translate(123.57 69.54) rotate(-90.69)">G</text><text class="cls-1" transform="translate(123.31 63.12) rotate(-96.88)">R</text><text class="cls-1" transform="matrix(-0.22, -0.97, 0.97, -0.22, 122.44, 57.31)">A</text><text class="cls-1" transform="translate(120.86 51.27) rotate(-109.08)">P</text><text class="cls-1" transform="matrix(-0.43, -0.9, 0.9, -0.43, 118.81, 45.82)">H</text><text class="cls-1" transform="matrix(-0.52, -0.85, 0.85, -0.52, 115.91, 40.09)">E</text><text class="cls-1" transform="translate(112.89 35.4) rotate(-126.91)">R</text><path class="cls-2" d="M313.91,248.77a3,3,0,0,0,2.15-.64l.6.13a12.12,12.12,0,0,0,2.6.4,26.33,26.33,0,0,0,2.08,2.74c-.31,1.71-.53,3.43-.68,5.17-.47-.38-1-.72-1.47-1.06a6.61,6.61,0,0,0-1.59-1c-.17-.06-.39.14-.25.31A6.81,6.81,0,0,0,319,256c.54.34,1.08.7,1.65,1-.05.74-.07,1.49-.1,2.23l.06,0,.09.05,0,0,.17.06.13,0h0a1.94,1.94,0,0,1,.24,0h.05c0-.49,0-1,0-1.48,1-1.08,2.07-2.18,3.09-3.27.6.48,1.23.94,1.86,1.39a4.24,4.24,0,0,0,3.29,3.92,3.41,3.41,0,0,0-.33-3.13,4,4,0,0,0-2.85-1.31c-.57-.39-1.14-.76-1.73-1.12.59-.64,1.2-1.27,1.81-1.9a8.26,8.26,0,0,1,1.4-.28,5,5,0,0,0,5.32.51,6.69,6.69,0,0,0-3.79-1.1,8.39,8.39,0,0,0-.89,0,5.63,5.63,0,0,0-1.42.24l1-1c1.21-.66,1.29-.59,1.24-3.28a2.6,2.6,0,0,0-1.78,3.06c-.94.86-1.84,1.76-2.72,2.68a27.59,27.59,0,0,0,1-3.6,5.9,5.9,0,0,0,.73-1.72,2.7,2.7,0,0,0-.75-2.66,4.45,4.45,0,0,0-.6,4.67,29.92,29.92,0,0,0-.71,3.43.13.13,0,0,0,.1.15c-1.11,1.19-2.16,2.42-3.17,3.68a56.36,56.36,0,0,1,1.6-9.91,57.18,57.18,0,0,1,1.95-6.11,3.86,3.86,0,0,0,2-.06.16.16,0,0,0,0-.26,1.67,1.67,0,0,0-.89-.11c-.32,0-.64,0-1,.06.42-1.09.88-2.17,1.37-3.22q1-.17,2-.39s0,0,0,.06a3.89,3.89,0,0,0,2.66,3.46,4,4,0,0,0,1.78,2,4.81,4.81,0,0,0,3.42.38,5.22,5.22,0,0,0-5.2-3,4.16,4.16,0,0,1-2.42-2.9s0,0,0,0a33.12,33.12,0,0,0,3.21-.87.27.27,0,0,0,.13-.1,30.14,30.14,0,0,1,3.35-.79l.4-.05a4.86,4.86,0,0,0,5.18,0,5.17,5.17,0,0,0-3.58-.92,8.66,8.66,0,0,0-2.22.39,31.19,31.19,0,0,0-3.27.93l-.05,0a22.83,22.83,0,0,1,2.16-3.12c.72-.84,1.55-1.55,2.33-2.32a9.08,9.08,0,0,0,2.32-2,.29.29,0,0,0,.09-.26c0-.08-.12-.12-.2-.15a2.85,2.85,0,0,0-2.59.54,2.8,2.8,0,0,0-.95,2.28,15.4,15.4,0,0,0-3.7,5.15c-1.53.49-3.08.93-4.65,1.3A54.4,54.4,0,0,1,333.82,226c1.25-.32,2.5-.67,3.75-1a4.19,4.19,0,0,0,3.92,1.31,4.5,4.5,0,0,0-2.72-1.66l1.34-.39.58-.16a.1.1,0,0,0,.08.07,29.86,29.86,0,0,1,3.21,1.29,4.78,4.78,0,0,0,1.83,1.08,9.48,9.48,0,0,0,2.64.71,4.36,4.36,0,0,0-4.43-2.33,24.51,24.51,0,0,0-2.86-.94,32.55,32.55,0,0,0,3.24-.95,1.75,1.75,0,0,0,2,1.22,6.29,6.29,0,0,0,3-2,5,5,0,0,0-4.53,0,17.74,17.74,0,0,0-2.53.65,2.83,2.83,0,0,0,.8-3.35,4.7,4.7,0,0,0-1.26,3.49c-.68.23-1.36.46-2,.66l-1.66.5a6.56,6.56,0,0,0,.82-1.05c.05-.08,0-.2-.13-.13a8.23,8.23,0,0,0-1.28,1.36c-1.12.34-2.24.7-3.35,1.07a55.4,55.4,0,0,1,12.29-10.76c.62.12,1.24.21,1.87.29a5.66,5.66,0,0,0,1.16,2.57,3.3,3.3,0,0,0,1.09,2.18,3.1,3.1,0,0,0,2.68,1,4.68,4.68,0,0,1-.52-1.76,2.66,2.66,0,0,0-2.91-1.82,6.76,6.76,0,0,1-.44-.61c-.3-.49-.53-1-.8-1.54l.4,0,.73.1a4.13,4.13,0,0,0,3.85.5,3,3,0,0,0-4-.92l-.4,0h-.16l-2.19-.25c.46-.3.93-.6,1.41-.89q2.34-1.38,4.77-2.52a5.35,5.35,0,0,0,2.08,1.78,19.67,19.67,0,0,0,.43,2.87c.06.28.5.23.45,0a21.32,21.32,0,0,0-.64-2.71,3,3,0,0,0,2.55,0,.07.07,0,0,0,0-.13,10.8,10.8,0,0,1-2.69-.49,5.09,5.09,0,0,1-1.84-1.43,54,54,0,0,1,7.4-2.8c1,.52,2,1,3,1.5a3.81,3.81,0,0,0-.53,2.17c0,.7.23,1.81.91,2.15a.09.09,0,0,0,.13-.09c0-.68-.48-1.31-.55-2a4.78,4.78,0,0,1,.31-2.08l2.47,1.14a23.72,23.72,0,0,0,3.27,1.62,2.81,2.81,0,0,0,3.31.93,7.12,7.12,0,0,0-2.45-1.87c-.52-.24-1.3-.3-1.58.12-1.12-.55-2.24-1.2-3.31-1.7a9.44,9.44,0,0,1,2-.62l.24,0a1,1,0,0,0,.4.28,4.62,4.62,0,0,0,3.86-.24,3.78,3.78,0,0,0-5-.5h0a4.64,4.64,0,0,0-2,.87v0c-1.37-.62-2.73-1.23-4.12-1.78q2.44-.71,4.93-1.19a16.47,16.47,0,0,0,2.62.17c.07,0,.06-.09,0-.1a11.63,11.63,0,0,0-1.66-.23,53.88,53.88,0,0,1,9.91-.8,29.14,29.14,0,0,0,1.7,3c.22.35.69,0,.5-.36a28.13,28.13,0,0,0-1.66-2.66c1.14,0,2.28.08,3.43.18,1.06,1.06,2.14,2.1,3.22,3.15-.46.55-.9,1.12-1.33,1.69a4.25,4.25,0,0,0-4.31,3.23,3.32,3.32,0,0,0,4.62-2.8c.44-.62.86-1.24,1.26-1.89.63.61,1.25,1.23,1.86,1.85a8.53,8.53,0,0,1,.26,1.41,5,5,0,0,0-.61,5.31,6.68,6.68,0,0,0,1.17-3.75c0-.34,0-.67,0-.9a5.84,5.84,0,0,0-.22-1.44c.33.34.66.67,1,1,0,0,.07,0,.11.05a4.38,4.38,0,0,0,3.34,1.59,3,3,0,0,0-3.1-2.05c-.73-.83-1.49-1.63-2.27-2.41.54.13,1.09.23,1.64.31l1.34.24a6.07,6.07,0,0,0,1.88.87,2.7,2.7,0,0,0,2.67-.7,4.44,4.44,0,0,0-4.72-.65c-.26,0-.53-.08-.79-.12l-2.48-.41c-1.26-1.24-2.58-2.43-3.94-3.55a56.06,56.06,0,0,1,8.63,1.49,56.92,56.92,0,0,1,7.34,2.45q-.06.55-.09,1.11a1.51,1.51,0,0,0,.12.84.16.16,0,0,0,.24,0,3.18,3.18,0,0,0,.11-1.8c1.08.45,2.15.93,3.2,1.45q.15,1,.33,1.95a.09.09,0,0,0-.06,0,3.88,3.88,0,0,0-3.41,2.32,3.12,3.12,0,0,0-2.41,1.54,4.79,4.79,0,0,0-.44,3.41c2.3-.95,3.32-1.52,3.19-4.21a4.17,4.17,0,0,1,3.1-2.81.18.18,0,0,0,.07,0,33.35,33.35,0,0,0,.81,3.24.23.23,0,0,0,.21.17,26.94,26.94,0,0,1,.63,3.22c0,.22,0,.48.05.74a4.55,4.55,0,0,0-.16,4.94c1-1.26,1.63-2.66,1-4a15.12,15.12,0,0,0-.38-2.09,27.55,27.55,0,0,0-.73-3,24.27,24.27,0,0,1,2.76,2c.91.79,1.67,1.71,2.5,2.57a9.23,9.23,0,0,0,2,2.35c.07.06.16.13.25.1a.26.26,0,0,0,.15-.2,2.8,2.8,0,0,0-.48-2.6,2.83,2.83,0,0,0-2.26-1,15.52,15.52,0,0,0-5.08-3.77s0,0,0,0c-.44-1.5-.84-3-1.17-4.55a54.5,54.5,0,0,1,7,4.25l.12,0,.11-.06.08-.08.07-.12a.94.94,0,0,0,0-.16,1,1,0,0,0,0-.24l-.85-.6c.53-.41,1.05-.85,1.55-1.3a4.44,4.44,0,0,0,2.89-2.16,5.25,5.25,0,0,0-2.37.35,1.93,1.93,0,0,0-1.13,1.59c-.46.4-.91.82-1.34,1.25-1.43-1-2.91-1.85-4.42-2.67a4.2,4.2,0,0,1,2.78-2.34h.06a2.56,2.56,0,0,0,2.25,2,.13.13,0,0,0,.1-.23,13.14,13.14,0,0,0-1.11-.72,2.91,2.91,0,0,1-.86-1.05,7.32,7.32,0,0,1,2.4.36c.09,0,.11-.09.06-.14-1.92-2-5.33-.37-6,2a57,57,0,0,0-6.75-3c1.09-.22,2.18-.46,3.28-.7.77-.17,1.58-.31,2.37-.51a15.17,15.17,0,0,0,5.62.13,3.4,3.4,0,0,0-5.85-.59c-.89.18-1.78.43-2.65.63-1.14.26-2.28.52-3.41.8-1.31-.47-2.66-.89-4-1.27a11.45,11.45,0,0,1,1.55,0c.71,0,1.43.25,2.13.22.16,0,.16-.22,0-.29a5.45,5.45,0,0,0-2.47-.4,9,9,0,0,0-2.14.23l-.29-.08c-.71-.18-1.42-.34-2.12-.49.86-.62,1.72-1.25,2.62-1.81s2.07-1.06,3-1.74a5.3,5.3,0,0,0,3.25-1.72,3.3,3.3,0,0,0-4,1.51,19.37,19.37,0,0,0-2.1,1.19l-.18.12c.18-.68.31-1.37.48-2a5.52,5.52,0,0,1,.16-.54,2.36,2.36,0,0,0,1.14-2.06,6.59,6.59,0,0,0-.68-2.66,3,3,0,0,0-1.58,2.24,3,3,0,0,0,.6,2.17l-.15.6a11.89,11.89,0,0,0-.44,2.59,24.76,24.76,0,0,0-2.75,2c-1.71-.35-3.43-.61-5.15-.8.37-.45.71-.93,1.05-1.4a6.35,6.35,0,0,0,1-1.58c.06-.17-.14-.38-.31-.24a7,7,0,0,0-1.21,1.59c-.34.52-.69,1-1,1.58a55.34,55.34,0,0,0-6.68-.26,8.21,8.21,0,0,0,1.64-1.09h.16a.19.19,0,0,1-.13,0h0a3,3,0,0,0,2.23-1.48,4.67,4.67,0,0,0,.5-3c0-.17-.08-.38-.25-.44a.51.51,0,0,0-.37.08,4.82,4.82,0,0,0-2.39,4.27,8.21,8.21,0,0,1-.72.57,9.27,9.27,0,0,1-2.39,1.16c-.8,0-1.59.09-2.39.17l.35-.59a10,10,0,0,0,2.62-1.81s0-.14-.08-.11a8.66,8.66,0,0,0-2.19,1.34c.83-1.38,1.66-2.74,2.52-4.08.3-.14.59-.34.86-.5a9.92,9.92,0,0,0,1.37-1c.06,0,0-.15-.06-.12a7.62,7.62,0,0,0-1.34.67l-.39.24c.53-.84,1.08-1.67,1.64-2.5a1.78,1.78,0,0,0,1.83-.78,4.81,4.81,0,0,0,.6-2.43,18.53,18.53,0,0,0-2.5,1.49,1.7,1.7,0,0,0-.75.84.69.69,0,0,0,.32.77c-.76,1-1.5,2-2.19,3.09h0v0a4.23,4.23,0,0,1-.43-1.3c-.06-.42,0-.87-.09-1.28a.09.09,0,0,0-.15,0c-.64.75-.18,2.11.33,2.81a.2.2,0,0,0,.14.06s0,0,.06,0c-.46.72-.9,1.46-1.31,2.2a18,18,0,0,1-2.24-2.13l-.62-.72a4.78,4.78,0,0,0-.43-1.53,2.18,2.18,0,0,0-1.93-1.29,3,3,0,0,0,.22,2.62,2.16,2.16,0,0,0,1.77.94,8.29,8.29,0,0,0,3.08,2.38c-.5.91-.95,1.83-1.35,2.75a55.56,55.56,0,0,0-8,1.4,8.07,8.07,0,0,1-.95-1.23c-.32-.5-.5-1.1-.86-1.56a.22.22,0,0,0-.39.14,4.55,4.55,0,0,0,1.79,2.76q-2.39.62-4.71,1.44c-.12-.34-.24-.68-.37-1a.55.55,0,0,0,.31-.26A3.1,3.1,0,0,0,358,206a2.18,2.18,0,0,0-.27-1.77.08.08,0,0,0-.15,0c-.1.52,0,1.05-.09,1.58a5.13,5.13,0,0,1-.21.88.08.08,0,0,0,0,0c-.29-.75-.6-1.48-.92-2.22.49-2-.69-4.87-2.62-5.48a3.7,3.7,0,0,0,1.64,5.16.9.9,0,0,1,.24.21,41.14,41.14,0,0,0,1.8,3.93c-1.29.47-2.57,1-3.83,1.56a2.55,2.55,0,0,0,0-.73,10.21,10.21,0,0,0-1.13-3.61,4.25,4.25,0,0,0,.12,4.79q-1.37.66-2.7,1.38c-.28-.18-.59-.33-.88-.48s-.84-.6-1.3-.56a.08.08,0,0,0-.06.13c.22.39.74.52,1.12.72s.5.27.76.39c-.53.29-1.06.58-1.59.89a55.27,55.27,0,0,0-6,4.12c.16-.66.23-1.35.4-2,.25-1,.66-1.92,1-2.9,0-.09-.09-.17-.15-.09a7.59,7.59,0,0,0-1.26,2.4q-.26-.34-.48-.69a3.76,3.76,0,0,0-.61-.95.12.12,0,0,0-.19.11,2.12,2.12,0,0,0,.43,1,6.25,6.25,0,0,0,.72,1,6,6,0,0,0-.2,2.45c-1.09.88-2.15,1.78-3.17,2.73.08-.55.17-1.1.25-1.65a1.91,1.91,0,0,0,.84-1.54,2.5,2.5,0,0,0-1-2.18,2.64,2.64,0,0,0-.23,3.85,12.63,12.63,0,0,0-.19,1.82l-.81.78c-.15-1.16-.45-2.31-.69-3.44-.16-.75-.28-1.57-.47-2.34a3.08,3.08,0,0,0-.46-4,4.23,4.23,0,0,0-1.39,2.38,1.76,1.76,0,0,0,1.37,1.93c.18.87.44,1.74.62,2.56.14.61.26,1.23.4,1.85-.3-.17-.6-.35-.91-.51l-.43-.27a4,4,0,0,0-2.64-1.87,3.88,3.88,0,0,0,.82,2.34,1.46,1.46,0,0,0,1.92.14l.08,0,1.3.65c.07.27.15.54.23.81q-1.68,1.68-3.21,3.48a2.55,2.55,0,0,0-2.39-1.62,4.68,4.68,0,0,0,1,1.61,1.82,1.82,0,0,0,1,.42c-.55.67-1.08,1.34-1.6,2a10.6,10.6,0,0,1-2.05-.79c-.67-.37-1.2-.92-1.87-1.29-.08-.05-.18.06-.14.14.57,1.39,2.36,2.16,3.82,2.25-.76,1-1.48,2.07-2.17,3.14a3.08,3.08,0,0,0-.54-.72l-.69-.78a4.44,4.44,0,0,0-2.22-2.87,5.34,5.34,0,0,0,.39,2.36,1.93,1.93,0,0,0,1.63,1.1c.18.19.35.39.52.58a2.39,2.39,0,0,0,.73.62c-1,1.48-1.82,3-2.62,4.57a4.22,4.22,0,0,1-2.27-2.49c0-.08,0-.15,0-.22a2.83,2.83,0,0,0,1.88-2.35.13.13,0,0,0-.23-.1c-.31.35-.47.8-.75,1.18a3.36,3.36,0,0,1-1,.87,7.16,7.16,0,0,1,.3-2.46c0-.08-.09-.11-.14-.06-1.9,2-.31,5.3,2.05,6a55.71,55.71,0,0,0-2.87,6.76c-.24-1.07-.5-2.15-.76-3.22-.18-.76-.34-1.56-.55-2.34a15.44,15.44,0,0,0,0-5.63,3.4,3.4,0,0,0-.47,5.86c.17.75.38,1.49.56,2.22.31,1.26.62,2.53,1,3.79-.44,1.31-.85,2.64-1.19,4a12,12,0,0,1,0-1.47,19.3,19.3,0,0,0,.18-2.14c0-.16-.22-.16-.28,0a5.09,5.09,0,0,0-.36,2.29,9.19,9.19,0,0,0,.27,2.34c-.19.8-.36,1.61-.52,2.42-.64-.85-1.28-1.7-1.86-2.59s-1.1-2.06-1.8-3a5.28,5.28,0,0,0-1.78-3.22,3.31,3.31,0,0,0,1.59,4,17.59,17.59,0,0,0,1.22,2.07l.12.18c-.67-.16-1.36-.28-2-.44a5.44,5.44,0,0,1-.54-.15,2.42,2.42,0,0,0-2.09-1.11,6.7,6.7,0,0,0-2.64.74A3,3,0,0,0,313.91,248.77Z" transform="translate(-311.64 -193.62)"/><path class="cls-3" d="M429,225.34s0,0,0,0v0Z" transform="translate(-311.64 -193.62)"/><text class="cls-4" transform="translate(59.57 92.71)">C</text><text class="cls-4" transform="translate(43.44 75.07)">E</text></svg>